<svg width="26" height="26" viewBox="0 0 26 26" fill="none" xmlns="http://www.w3.org/2000/svg">
<g id="Checkbox">
<path d="M13 24.8335C19.6274 24.8335 25 19.4609 25 12.8335C25 6.20608 19.6274 0.833496 13 0.833496C6.37258 0.833496 1 6.20608 1 12.8335C1 19.4609 6.37258 24.8335 13 24.8335Z" fill="#1CC54E"/>
<path d="M10.5098 16.4712L7.00005 12.8894L5.80005 14.1L10.5098 18.9067L20.6119 8.59824L19.4244 7.38672L10.5098 16.4712Z" fill="white"/>
<path d="M13 24.8335C19.6274 24.8335 25 19.4609 25 12.8335C25 6.20608 19.6274 0.833496 13 0.833496C6.37258 0.833496 1 6.20608 1 12.8335C1 19.4609 6.37258 24.8335 13 24.8335Z" stroke="white" stroke-width="0.666667"/>
<path d="M10.5098 16.4712L7.00005 12.8894L5.80005 14.1L10.5098 18.9067L20.6119 8.59824L19.4244 7.38672L10.5098 16.4712Z" stroke="white" stroke-width="0.666667"/>
</g>
</svg>
