<svg width="24" height="24" viewBox="0 0 24 24" fill="none" xmlns="http://www.w3.org/2000/svg">
<g id="Grid">
<g id="Vector">
<path fill-rule="evenodd" clip-rule="evenodd" d="M3 13H10C10.2652 13 10.5196 13.1054 10.7071 13.2929C10.8946 13.4804 11 13.7348 11 14V21C11 21.2652 10.8946 21.5196 10.7071 21.7071C10.5196 21.8946 10.2652 22 10 22H3C2.73478 22 2.48043 21.8946 2.29289 21.7071C2.10536 21.5196 2 21.2652 2 21V14C2 13.7348 2.10536 13.4804 2.29289 13.2929C2.48043 13.1054 2.73478 13 3 13ZM4 20H9V15H4V20ZM14 2H21C21.2652 2 21.5196 2.10536 21.7071 2.29289C21.8946 2.48043 22 2.73478 22 3V10C22 10.2652 21.8946 10.5196 21.7071 10.7071C21.5196 10.8946 21.2652 11 21 11H14C13.7348 11 13.4804 10.8946 13.2929 10.7071C13.1054 10.5196 13 10.2652 13 10V3C13 2.73478 13.1054 2.48043 13.2929 2.29289C13.4804 2.10536 13.7348 2 14 2ZM15 9H20V4H15V9ZM3 2H10C10.2652 2 10.5196 2.10536 10.7071 2.29289C10.8946 2.48043 11 2.73478 11 3V10C11 10.2652 10.8946 10.5196 10.7071 10.7071C10.5196 10.8946 10.2652 11 10 11H3C2.73478 11 2.48043 10.8946 2.29289 10.7071C2.10536 10.5196 2 10.2652 2 10V3C2 2.73478 2.10536 2.48043 2.29289 2.29289C2.48043 2.10536 2.73478 2 3 2ZM4 9H9V4H4V9Z" fill="#0C69B0"/>
<path fill-rule="evenodd" clip-rule="evenodd" d="M21 13H14C13.7348 13 13.4804 13.1054 13.2929 13.2929C13.1054 13.4804 13 13.7348 13 14V21C13 21.2652 13.1054 21.5196 13.2929 21.7071C13.4804 21.8946 13.7348 22 14 22H21C21.2652 22 21.5196 21.8946 21.7071 21.7071C21.8946 21.5196 22 21.2652 22 21V14C22 13.7348 21.8946 13.4804 21.7071 13.2929C21.5196 13.1054 21.2652 13 21 13ZM15 20H20V15H15V20Z" fill="#0C69B0"/>
</g>
</g>
</svg>
