<svg width="51" height="45" viewBox="0 0 51 45" fill="none" xmlns="http://www.w3.org/2000/svg">
<g id="Group">
<path id="Vector" d="M50.8419 7.08844L49.454 16.5745L47.0686 14.8892C45.9781 16.1408 44.8859 17.2712 43.8153 18.2912C40.8738 21.0908 38.0918 23.0553 35.9532 24.386C33.8724 25.6816 30.61 27.6812 25.8463 29.1178C23.5708 29.8047 19.1387 31.0967 13.3539 30.6523C11.4101 30.5023 9.76358 30.3497 7.99723 29.7661C7.05999 29.4563 4.38073 28.5423 2.50985 26.4601C2.21065 26.127 1.66092 25.5065 1.18689 24.5584C0.757024 23.6982 0.552453 22.8955 0.417273 22.3649C0.315438 21.9662 0.24875 21.6277 0.205492 21.3826C0.102756 20.746 0.0351662 19.9801 0.0730164 19.1155C0.146914 17.4589 0.581291 16.1229 0.963398 15.2232C1.43292 13.7444 2.18181 11.9136 3.41015 9.99396C5.65142 6.48866 8.41358 4.36429 10.2088 3.20872C12.2977 2.02533 16.4757 0.0419203 22.0072 0.00061809C25.4759 -0.0245224 28.0524 0.724305 28.8176 0.962242C36.4894 3.3452 40.598 9.74435 41.8957 11.9828L38.7397 14.9969C35.5702 8.00607 28.6355 3.59661 21.3241 3.86866C12.377 4.20177 7.07531 11.3884 5.72982 14.1107C4.55376 16.491 4.40687 19.102 4.40687 19.102C4.33748 20.3375 4.278 21.713 5.07916 23.0562C5.53156 23.8149 6.21737 24.4946 7.46463 25.1734C8.33248 25.6457 11.0379 26.971 16.4649 26.6863C17.2741 26.6441 20.7383 26.4296 25.2705 24.9148C28.3994 23.8688 30.8534 22.5983 32.5359 21.6089C34.1355 20.7029 35.9145 19.5617 37.7628 18.1296C39.3399 16.9076 40.6935 15.6856 41.8398 14.5426C42.0723 14.302 42.3049 14.0604 42.5365 13.8198L44.0514 12.3814L41.7957 10.4797L50.8401 7.08754L50.8419 7.08844Z" fill="white"/>
<path id="Vector_2" d="M0.962525 15.2251C0.552481 16.4767 0.252383 17.7778 0.0721436 19.1174C0.15956 17.2758 0.690364 15.8635 0.962525 15.2251Z" fill="#4C5A6A"/>
<path id="Vector_3" d="M0.373216 26.8609C0.998646 27.6969 2.06476 28.8964 3.70223 29.8967C4.735 30.5279 5.711 30.9059 6.48873 31.1393C7.04657 32.0947 10.764 38.22 18.5044 39.7392C26.3439 41.2781 32.1674 36.8857 33.3822 35.9142C34.3807 35.116 37.6737 32.4116 39.2382 27.6601C39.769 26.0484 39.9582 24.6324 40.0294 23.6304C41.356 22.561 42.6826 21.4908 44.0091 20.4214C44.1416 22.0816 44.1263 24.2248 43.6189 26.6446C42.5447 31.7678 39.8645 35.2731 38.3055 37.0168C36.9492 38.4435 34.4655 40.69 30.7255 42.2999C26.6232 44.066 22.959 44.2267 20.9331 44.1693C18.9802 44.022 16.2162 43.5767 13.1792 42.2568C9.84208 40.8067 7.70715 38.967 7.10605 38.4319C4.43851 36.0588 2.9975 33.5977 2.37838 32.4251C1.23476 30.2594 0.669709 28.2796 0.372314 26.8609H0.373216Z" fill="white"/>
<path id="Vector_4" d="M11.1414 34.1102C11.7506 34.7216 12.6428 35.4947 13.8522 36.1843C15.0517 36.8694 16.1638 37.2447 16.9974 37.4593C16.983 35.738 16.9685 34.0159 16.9541 32.2947L11.0981 32.2085C11.1126 32.8424 11.127 33.4763 11.1414 34.1102Z" fill="#20C7FE"/>
<path id="Vector_5" d="M24.9136 31.0634L25.065 38.1512C24.2792 38.3496 23.1572 38.5418 21.8117 38.4754C20.6807 38.4197 19.7353 38.1988 19.036 37.9779C19.0504 36.069 19.0648 34.1602 19.0793 32.2513C20.112 32.0942 21.1917 31.902 22.311 31.6677C23.2149 31.4791 24.0827 31.2753 24.9136 31.0625V31.0634Z" fill="#FF0004"/>
<path id="Vector_6" d="M26.9952 30.5233C28.0145 30.1651 29.0806 29.7575 30.1837 29.2915C31.1389 28.8883 32.0428 28.4744 32.8945 28.0596V34.1534C32.1573 34.711 31.3057 35.2937 30.3351 35.8603C29.1401 36.5589 28.0073 37.0922 26.9952 37.5025V30.5233Z" fill="#F8B90B"/>
<path id="Vector_7" d="M16.9534 24.8404C16.0423 24.8916 15.0555 24.9113 14.0038 24.8835C12.9656 24.8566 11.9941 24.7856 11.0974 24.6887V15.375H16.9534V24.8395V24.8404Z" fill="#20C7FE"/>
<path id="Vector_8" d="M25.0001 23.1554C24.2314 23.4795 23.3014 23.8072 22.2244 24.0631C21.0231 24.3477 19.939 24.4717 19.036 24.5166V8.54785H25.065L25.0001 23.1554Z" fill="#FF0004"/>
<path id="Vector_9" d="M32.9377 19.3518C32.1104 19.8142 31.2498 20.2766 30.3567 20.7345C29.2158 21.3199 28.101 21.8586 27.0169 22.3552C27.0097 18.7251 27.0024 15.095 26.9952 11.4648H32.981C32.9666 14.0938 32.9521 16.7228 32.9377 19.3518Z" fill="#F8B90B"/>
</g>
</svg>
