<svg width="1102" height="1080" viewBox="0 0 1102 1080" fill="none" xmlns="http://www.w3.org/2000/svg">
<path d="M651.341 0C628.322 74.1772 594.097 147.617 548.518 207.884C401.084 402.814 296.864 432.032 218.973 432.045C117.978 432.065 -27.2585 385.541 -150.814 273.557C-202.054 227.117 -239.045 183.561 -266.006 144.752V0H651.341Z" fill="#0C69B0"/>
<path d="M364.029 1080.38C333.624 1005.1 310.133 918.724 290.267 827.48C239.208 592.958 419.316 509.856 784.714 635.149C912.347 678.912 1081.42 758.411 1098.97 944.741C1103.95 997.654 1102.5 1042.31 1096.05 1080.39H364.029V1080.38Z" fill="#F5DD71"/>
<path d="M-266 385.243C-56.6046 188.159 114.947 207.547 208.303 228.927C414.054 276.046 550.379 494.103 543.141 647.081C536.032 797.273 464.693 933.812 347.168 996.807C233.106 1057.95 111.47 1018.33 65.3544 921.977C35.9956 860.65 -15.6392 796.762 -158.846 765.312C-196.678 757.002 -233.901 741.197 -266 719.564V385.243Z" fill="#2E3048"/>
<path d="M244.823 677.71L687.55 679.993C703.228 680.077 716.004 667.421 716.088 651.732L717.717 334.839C717.794 319.15 705.154 306.364 689.47 306.28L246.742 303.997C231.064 303.913 218.288 316.569 218.204 332.259L216.575 649.151C216.498 664.84 229.138 677.626 244.816 677.703L244.823 677.71Z" fill="#C6C3B2"/>
<path d="M414.367 300.511L520.007 301.065L519.882 324.934L414.242 324.381L414.367 300.511Z" fill="#6D6865"/>
<path d="M618.074 425.675L688.682 426.032L688.324 496.691L617.717 496.333L618.074 425.675Z" fill="white"/>
<path d="M655.383 301.21L723.695 283.339L741.553 351.701L673.24 369.572L655.383 301.21Z" fill="#F5DD71"/>
<path d="M572.193 257.193L636.475 286.427L607.261 350.755L542.98 321.521L572.193 257.193Z" fill="#F5DD71"/>
<path d="M648.76 175.071L706.964 215.072L666.991 273.318L608.787 233.317L648.76 175.071Z" fill="#F5DD71"/>
<path d="M466.071 424.43L536.678 424.8L536.308 495.458L465.701 495.088L466.071 424.43Z" fill="white"/>
<path d="M390.162 424.19L460.769 424.548L460.412 495.206L389.804 494.849L390.162 424.19Z" fill="#F5DD71"/>
<path d="M390.551 348.496L461.152 348.854L460.795 419.512L390.193 419.155L390.551 348.496Z" fill="white"/>
<path d="M541.716 500.977L612.323 501.335L611.966 571.993L541.358 571.636L541.716 500.977Z" fill="white"/>
<path d="M465.355 576.61L535.963 576.968L535.606 647.626L464.998 647.268L465.355 576.61Z" fill="#F5DD71"/>
<path d="M617.684 501.524L688.292 501.882L687.934 572.54L617.327 572.182L617.684 501.524Z" fill="white"/>
<path d="M466.49 348.801C466.49 348.801 466.367 381.505 473.89 409.268L490.162 419.577L547.729 419.874C536.943 390.688 537.092 349.163 537.092 349.163L466.49 348.801Z" fill="#F5DD71"/>
<path d="M490.168 419.583L490.22 409.12L473.89 409.036L490.168 419.583Z" fill="#D2B844"/>
<path d="M617.265 577.334C617.265 577.334 617.149 610.038 624.664 637.802L640.937 648.116L698.51 648.414C687.718 619.228 687.873 577.703 687.873 577.703L617.271 577.341L617.265 577.334Z" fill="white"/>
<path d="M640.937 648.11L640.988 637.646L624.664 637.562L640.937 648.11Z" fill="#C7C7C7"/>
<path d="M542.075 425.223C542.075 425.223 541.952 457.927 549.474 485.69L565.753 495.998L623.32 496.296C612.534 467.11 612.683 425.585 612.683 425.585L542.081 425.223H542.075Z" fill="#F5DD71"/>
<path d="M565.746 495.998L565.798 485.534L549.474 485.45L565.746 495.998Z" fill="#D2B844"/>
<path d="M389.742 500.131C389.742 500.131 389.62 532.835 397.142 560.598L413.421 570.906L470.988 571.204C460.202 542.018 460.351 500.493 460.351 500.493L389.749 500.131H389.742Z" fill="white"/>
<path d="M413.414 570.906L413.466 560.442L397.142 560.358L413.414 570.906Z" fill="#C7C7C7"/>
<path d="M314.237 423.858L384.845 424.215L384.487 494.874L313.88 494.516L314.237 423.858Z" fill="white"/>
<path d="M314.23 499.476L384.837 499.834L384.48 570.492L313.872 570.134L314.23 499.476Z" fill="#F5DD71"/>
<path d="M238.195 423.301L308.803 423.671L308.433 494.329L237.825 493.959L238.195 423.301Z" fill="#F5DD71"/>
<path d="M542.095 151.192L597.346 195.188L553.385 250.474L498.134 206.478L542.095 151.192Z" fill="#F5DD71"/>
<path d="M238.591 347.594L309.192 347.964L308.822 418.622L238.221 418.252L238.591 347.594Z" fill="white"/>
<path d="M727.861 192.97L796.174 175.1L814.032 243.462L745.719 261.332L727.861 192.97Z" fill="#F5DD71"/>
<path d="M314.591 348.077C314.591 348.077 314.468 380.781 321.99 408.544L338.263 418.853L395.836 419.15C385.051 389.964 385.199 348.439 385.199 348.439L314.597 348.077H314.591Z" fill="#F5DD71"/>
<path d="M338.269 418.859L338.321 408.395L321.997 408.311L338.269 418.859Z" fill="#D2B844"/>
<path d="M823.365 709.521C823.365 709.521 821.174 713.117 820.896 716.047C820.676 718.368 818.731 721.835 817.884 723.755C817.044 725.67 814.324 734.342 814.227 736.599C814.188 737.524 816.243 743.338 815.952 745.194C815.661 747.056 814.595 750.742 816.269 750.982C817.936 751.227 819.83 748.207 819.83 748.207C819.83 748.207 819.668 749.921 821.083 750.574C823.83 751.842 825.284 750.723 825.284 750.723C825.284 750.723 826.298 752.605 827.572 752.857C830.376 753.413 831.753 752.294 831.753 752.294C831.753 752.294 832.987 753.349 834.926 753.316C837.401 753.264 838.448 751.124 838.448 751.124C838.448 751.124 841.589 751.758 842.5 750.29C843.411 748.822 843.249 747.263 843.631 745.931C844.006 744.605 843.721 732.615 839.65 723.975C835.578 715.342 840.684 706.922 840.684 706.922L823.377 709.508L823.365 709.521Z" fill="#DBA585"/>
<path d="M819.39 747.082C819.39 747.082 819.112 736.321 821.936 734.031C824.767 731.742 825.09 735.629 825.09 735.629C825.09 735.629 824.709 731.787 827.798 731.27C830.893 730.753 831.016 735.312 831.016 735.312C831.016 735.312 831.526 732.356 834.771 732.964C838.021 733.572 837.246 737.349 837.246 737.349C837.246 737.349 840.348 733.65 842.358 737.2C845.757 743.208 842.668 750.367 842.668 750.367C842.668 750.367 841.569 752.068 838.48 751.273C838.48 751.273 836.348 755.509 831.72 752.508C831.72 752.508 826.938 755.121 825.213 750.943C825.213 750.943 819.603 753.129 819.384 747.082H819.39Z" fill="#C99A7D"/>
<path d="M786.897 554.544C786.897 554.544 805.302 615.93 811.519 638.571C813.471 645.672 818.188 713.486 819.022 716.221C819.855 718.95 843.198 722.688 843.198 722.688C843.198 722.688 840.367 637.853 840.102 633.223C839.837 628.599 814.343 533.856 806.931 530.481C801.373 527.946 798.445 530.041 791.447 535.24C781.624 542.535 786.897 554.544 786.897 554.544Z" fill="#0C69B0"/>
<path d="M565.292 440.989L607.422 468.578L605.374 471.712L563.244 444.123L565.292 440.989Z" fill="#DEDFE6"/>
<path d="M558.748 456.827C558.748 456.827 559.148 459.213 559.833 460.171C559.833 460.171 561.21 461.813 562.121 463.042C562.412 463.43 562.651 463.779 562.787 464.019C563.336 465.021 564.254 467.394 566.263 469.431C568.267 471.469 576.08 477.942 576.08 477.942L582.775 472.258L589.729 469.14C589.729 469.14 585.838 452.21 584.184 450.095C584.022 449.888 583.854 449.694 583.68 449.519C582.109 447.864 580.242 447.295 579.318 446.519C578.975 446.234 575.401 443.66 574.128 443.99C572.358 444.449 571.317 445.484 570.916 446.674C570.916 446.674 567.491 447.728 566.154 449.739C566.154 449.739 562.961 450.612 562.018 453.581C562.018 453.581 558.877 454.829 558.735 456.821L558.748 456.827Z" fill="#DCA787"/>
<path d="M801.825 973.656C801.825 973.656 803.505 985.309 803.712 987.062C803.919 988.815 822.376 986.034 822.376 986.034L823.869 972.162C823.869 972.162 804.132 972.019 801.825 973.662V973.656Z" fill="#454971"/>
<path d="M803.518 985.574C803.518 985.574 797.676 992.598 792.015 995.657C786.361 998.715 777.475 999.931 774.134 1003.09C771.717 1005.38 765.338 1015.23 788.829 1015.03C812.314 1014.82 823.636 1016.42 826.15 1012.64C828.664 1008.86 822.511 984.779 822.511 984.779C822.511 984.779 816.947 986.784 803.518 985.568V985.574Z" fill="#2E3048"/>
<path d="M669.611 973.656C669.611 973.656 671.291 985.309 671.498 987.062C671.704 988.815 690.161 986.034 690.161 986.034L691.654 972.162C691.654 972.162 671.918 972.019 669.611 973.662V973.656Z" fill="#454971"/>
<path d="M671.304 985.574C671.304 985.574 665.462 992.598 659.801 995.657C654.146 998.715 633.337 1001.23 629.996 1004.4C627.585 1006.69 623.566 1015.89 656.615 1015.03C680.093 1014.42 691.421 1016.42 693.942 1012.65C696.455 1008.87 690.303 984.785 690.303 984.785C690.303 984.785 685.062 986.926 671.31 985.574H671.304Z" fill="#2E3048"/>
<path d="M786.548 674.231C786.548 674.231 803.887 701.8 802.594 726.717C801.302 751.635 808.882 778.842 811.487 804.872C814.388 833.896 826.273 902.596 826.706 918.117C827.139 933.638 824.864 983.208 824.864 983.208L801.076 983.751C801.076 983.751 781.1 863.644 775.924 851.389C770.754 839.134 745.092 751.764 744.232 741.96C743.373 732.156 786.555 674.231 786.555 674.231H786.548Z" fill="#2E3048"/>
<path d="M695.279 677.962C695.279 677.962 682.212 746.261 680.487 761.51C678.761 776.766 677.611 835.319 676.752 844.851C675.892 854.384 668.693 969.303 666.405 983.751H696.811C696.811 983.751 720.153 900.002 720.153 860.379C720.153 820.755 738.19 774.231 749.829 748.091C761.467 721.944 788.118 721.33 795.272 672.821C795.272 672.821 704.966 662.583 695.273 677.968L695.279 677.962Z" fill="#2E3048"/>
<path d="M757.616 442.457C757.616 442.457 734.345 433.759 723.611 451.485C712.876 469.212 713.917 504.703 725.646 509.068C737.375 513.433 754.998 511.15 761.009 500.059C767.012 488.968 772.434 472.93 772.176 462.214C771.917 451.498 763.729 445.555 757.616 442.457Z" fill="#DBA585"/>
<path d="M728.173 509.883C728.173 509.883 729.142 516.169 727.54 519.267C725.937 522.364 757.693 522.442 757.693 522.442C757.693 522.442 760.272 505.595 765.157 491.361C770.043 477.127 728.173 509.883 728.173 509.883Z" fill="#DBA585"/>
<path d="M765.157 491.361C765.157 491.361 762.967 494.976 754.023 493.573C745.079 492.17 734.164 480.257 730.428 478.951C726.693 477.645 726.661 475.446 726.661 475.446L724.321 478.867L720.354 479.119C720.354 479.119 723.972 468.468 718.512 464.122C713.051 459.776 724.173 429.64 752.866 439.67C752.866 439.67 774.903 445.749 774.101 458.289C773.3 470.828 770.095 485.114 765.157 491.361Z" fill="#2E3048"/>
<path d="M725.659 518.898C725.659 518.898 725.756 512.981 728.444 512.412C731.126 511.843 758.029 509.256 761.319 510.549V517.443C761.319 517.443 754.979 521.349 725.659 518.898Z" fill="#DCD0C8"/>
<path d="M727.249 470.893C727.753 468.791 733.097 462.777 735.14 469.218C737.182 475.653 732.044 484.312 729.181 483.568C726.312 482.825 725.976 476.228 727.249 470.893Z" fill="#DBA585"/>
<path d="M681.152 527.855C699.603 525.423 725.659 518.892 725.659 518.892L761.319 517.436C761.319 517.436 794.044 524.647 806.937 530.474C808.158 531.024 808.165 559.692 811.519 567.214L800.83 589.771C800.83 589.771 794.658 634.464 793.379 654.338C792.791 663.463 806.11 739.897 806.11 739.897C806.11 739.897 791.841 744.101 767.497 746.791C743.159 749.475 682.348 745.821 681.967 742.943C681.579 740.065 693.741 635.829 694.278 630.429C695.105 622.145 691.421 578.117 691.421 578.117C685.799 573.752 636.465 550.839 623.004 538.894C619.404 535.699 604.198 520.883 599.874 515.768C584.571 497.66 572.021 482.12 570.496 478.77C568.764 476.862 587.699 466.592 589.367 466.036C590.821 465.551 610.938 492.661 618.9 501.295C622.454 505.143 637.208 515.884 637.208 515.884C637.208 515.884 669.598 528.521 681.139 527.855H681.152Z" fill="#0C69B0"/>
<path d="M764.246 444.553C764.246 444.553 793.922 446.874 765.157 491.368L764.246 444.553Z" fill="#2E3048"/>
<path d="M563.246 444.094L560.809 440.381L565.288 440.963L563.246 444.094Z" fill="#DEDFE6"/>
<path d="M257.793 278.97H402.519V284.208H257.793V278.97Z" fill="#C6C3B2"/>
<path d="M331.484 935.345C340.227 895.333 321.331 885.354 303.049 875.699C288.114 867.809 274 860.359 274.75 836.78C275.745 805.525 254.471 794.156 235.698 784.119C221.732 776.656 208.542 769.607 206.571 755.386C201.834 721.162 170.298 678.635 169.975 678.208L168.017 679.676C168.333 680.096 199.502 722.132 204.148 755.722C206.287 771.178 220.013 778.518 234.541 786.285C253.573 796.452 273.251 806.967 272.301 836.703C271.499 861.808 286.951 869.969 301.899 877.865C320.174 887.514 337.436 896.633 329.086 934.821L331.477 935.345H331.484Z" fill="url(#paint0_linear_518_5728)"/>
<path d="M321.88 925.146C322.3 925.146 322.721 925.127 323.141 925.101C331.051 924.512 338.799 918.505 347.53 906.185L348.079 905.415L347.465 904.691C347.323 904.523 333.325 887.45 338.463 855.399C339.665 847.916 341.268 842.193 342.554 837.602C344.434 830.895 345.675 826.465 343.594 822.928C340.958 818.44 333.823 816.086 313.725 811.294C292.321 806.197 285.167 782.062 278.854 760.773C272.908 740.725 267.273 721.809 250.626 722.397C235.323 722.979 212.084 698.986 191.579 677.833C172.553 658.205 154.594 639.709 143.117 640.078C140.357 640.175 138.031 641.333 136.202 643.512C125.966 655.709 135.517 674.218 144.752 692.112C152.63 707.381 160.068 721.802 155.279 731.315C149.263 743.266 148.416 754.079 152.843 762.584C158.077 772.646 170.285 779.139 189.123 781.875C206.345 784.371 208.213 803.171 210.184 823.076C212.484 846.306 215.095 872.627 243.995 875.13C265.463 876.986 279.933 892.067 292.696 905.37C302.849 915.95 311.67 925.146 321.88 925.146ZM345.003 905.512C337.048 916.539 329.836 922.152 322.96 922.656C313.35 923.374 304.593 914.243 294.454 903.676C281.387 890.062 266.581 874.625 244.202 872.692C217.318 870.364 214.927 846.203 212.614 822.831C210.546 801.949 208.588 782.218 189.472 779.443C171.455 776.83 159.861 770.777 155.008 761.445C150.962 753.665 151.809 743.629 157.457 732.408C162.808 721.783 155.085 706.824 146.917 690.987C138.05 673.804 128.88 656.032 138.07 645.083C139.459 643.434 141.133 642.594 143.201 642.516C153.58 642.173 171.183 660.307 189.821 679.534C211.418 701.819 233.746 724.848 250.089 724.855C250.303 724.855 250.509 724.855 250.716 724.842C265.483 724.292 270.595 741.527 276.514 761.471C283.015 783.401 290.383 808.247 313.163 813.68C331.341 818.013 339.29 820.425 341.494 824.169C343.045 826.808 341.979 830.624 340.208 836.942C338.902 841.598 337.28 847.393 336.059 855.017C331.283 884.805 342.25 901.794 345.016 905.519L345.003 905.512Z" fill="url(#paint1_linear_518_5728)"/>
<path d="M320.989 916.765C321.273 916.765 321.557 916.752 321.848 916.726C334.812 915.549 344.783 887.12 354.425 859.635C359.001 846.597 363.318 834.277 367.531 826.375C370.795 820.244 374.943 813.848 378.95 807.665C389.632 791.2 400.677 774.166 397.084 759.221C395.197 751.363 389.555 744.819 379.848 739.218C358.6 726.963 361.87 720.043 369.03 704.884C374.284 693.755 381.483 678.518 381.761 654.538C381.884 644.23 382.117 635.318 382.33 627.454C383.008 602.181 383.351 589.493 377.955 584.907C375.725 583.006 372.598 582.521 368.126 583.368C360.474 584.823 357.172 591.006 353.669 597.544C349.204 605.893 344.137 615.354 328.853 618.555C314.513 621.563 300.723 625.65 296.916 635.189C294.241 641.895 296.774 650.71 304.665 662.144C306.577 664.918 307.23 667.278 306.668 669.354C305.421 673.959 298.273 677.296 289.995 681.157C278.22 686.654 263.57 693.496 259.421 707.665C256.074 719.086 259.951 733.327 271.254 751.208C297.995 793.509 296.923 822.197 295.973 847.509C295.268 866.264 294.609 883.983 305.912 903.773C310.901 912.51 315.845 916.771 320.995 916.771L320.989 916.765ZM371.951 585.405C373.858 585.405 375.299 585.852 376.365 586.763C380.863 590.592 380.514 603.662 379.881 627.383C379.667 635.253 379.428 644.178 379.312 654.499C379.041 677.943 371.977 692.907 366.82 703.83C359.711 718.873 355.427 727.952 378.627 741.333C387.72 746.578 392.98 752.618 394.705 759.79C398.053 773.707 387.3 790.288 376.902 806.327C372.863 812.555 368.688 818.996 365.372 825.217C361.075 833.288 356.726 845.692 352.125 858.82C343.174 884.333 333.028 913.253 321.635 914.288C317.279 914.676 312.71 910.731 308.031 902.55C297.078 883.362 297.698 866.787 298.415 847.593C299.378 821.925 300.464 792.837 273.315 749.895C262.407 732.641 258.633 719.054 261.767 708.351C265.606 695.242 279.112 688.937 291.035 683.375C299.863 679.255 307.482 675.692 309.033 669.995C309.796 667.181 309.033 664.155 306.681 660.753C299.294 650.044 296.845 641.979 299.191 636.094C302.577 627.609 316.342 623.677 329.357 620.948C345.759 617.514 351.343 607.083 355.821 598.695C359.182 592.422 362.077 587.003 368.584 585.768C369.845 585.528 370.963 585.405 371.958 585.405H371.951Z" fill="url(#paint2_linear_518_5728)"/>
<path d="M320.737 931.937L323.07 931.199C309.996 889.855 333.642 797.098 340.686 774.522C344.15 763.418 340.951 746.707 337.849 730.552C333.849 709.683 329.713 688.096 340.26 680.006C360.06 664.814 359.02 629.659 358.968 628.172L356.526 628.263C356.538 628.618 357.572 663.644 338.773 678.065C327.031 687.074 331.309 709.411 335.445 731.011C338.489 746.875 341.63 763.276 338.347 773.791C329.635 801.709 307.689 890.69 320.73 931.937H320.737Z" fill="url(#paint3_linear_518_5728)"/>
<path d="M419.599 663.398C425.04 649.578 446.295 651.673 444.337 671.217C442.385 690.76 428.711 711.61 449.546 744.838C470.381 778.066 422.849 784.585 405.924 805.428C388.999 826.278 383.138 854.946 368.817 873.19C354.496 891.433 344.732 935.086 333.009 918.796C321.292 902.505 332.317 881.325 331.012 852.01C329.713 822.688 303.637 804.128 329.713 785.231C355.789 766.341 382.013 760.546 373.405 717.935C369.605 699.135 402.667 706.398 419.592 663.398H419.599Z" fill="url(#paint4_linear_518_5728)"/>
<path d="M314.035 922.566C314.177 921.699 328.66 835.817 361.075 812.283C394.13 788.284 400.134 766.108 411.682 713.828L409.298 713.298C397.891 764.931 391.978 786.822 359.64 810.298C326.411 834.42 312.213 918.595 311.625 922.165L314.035 922.566Z" fill="white"/>
<path d="M343.284 919.488C343.284 919.488 333.649 895.65 351.181 861.769C368.707 827.888 382.905 833.1 340.641 807.032C298.383 780.969 340.376 698.864 304.4 688.439C268.43 678.014 237.171 545.122 209.822 562.046C182.473 578.971 218.941 644.133 199.405 663.676C179.869 683.226 177.264 708.098 217.635 728.243C258.006 748.388 188.987 825.275 243.679 848.738C298.377 872.194 282.686 964.175 343.271 919.494L343.284 919.488Z" fill="url(#paint5_linear_518_5728)"/>
<path d="M326.572 944.767C326.63 944.463 332.518 913.939 313.932 874.503C295.003 834.329 285.937 790.405 289.698 757.015C291.727 738.933 280.153 731.859 268.96 725.023C257.935 718.291 246.535 711.326 247.168 693.509C247.737 677.412 240.926 639.683 240.641 638.086L238.237 638.526C238.308 638.914 245.288 677.6 244.732 693.431C244.054 712.677 256.067 720.024 267.693 727.125C278.718 733.863 289.135 740.227 287.274 756.757C283.474 790.58 292.612 834.995 311.734 875.563C329.946 914.217 324.252 944.004 324.188 944.295L326.585 944.78L326.572 944.767Z" fill="white"/>
<path d="M282.376 776.352C270.091 764.931 253.85 763.288 257.23 780.219C260.617 797.156 272.217 801.994 266.413 812.639C260.61 823.283 250.942 833.928 267.383 846.992C283.823 860.055 293.006 861.51 297.847 886.189C302.681 910.867 301.718 927.72 322.992 928.768C344.266 929.815 336.046 898.767 329.28 884.734C329.28 884.734 319.127 868.721 325.894 847.69C332.66 826.666 345.72 815.309 318.158 808.163C290.596 801.017 290.654 784.041 282.376 776.339V776.352Z" fill="white"/>
<path d="M321.454 944.554C321.525 941.534 322.986 870.448 309.699 858.477C296.128 846.254 293.523 824.654 293.174 812.878C292.722 797.519 272.895 788.407 272.049 788.025L271.041 790.256C271.234 790.34 290.318 799.123 290.725 812.949C291.165 827.823 294.525 848.11 308.057 860.301C320.517 871.521 319.018 943.771 318.998 944.496L321.448 944.554H321.454Z" fill="url(#paint6_linear_518_5728)"/>
<path d="M271.551 915.543L293.588 999.213H342.845L364.888 915.543H271.551Z" fill="url(#paint7_linear_518_5728)"/>
<path d="M271.551 915.543C271.551 915.543 320.071 924.655 320.071 999.22H342.845L364.881 915.543H271.551Z" fill="url(#paint8_linear_518_5728)"/>
<path d="M183.055 334.47H188.289V491.361H183.055V334.47Z" fill="#C6C3B2"/>
<path d="M521.77 706.314H651.264V711.545H521.77V706.314Z" fill="#C6C3B2"/>
<defs>
<linearGradient id="paint0_linear_518_5728" x1="-266.016" y1="540.18" x2="1101.85" y2="540.18" gradientUnits="userSpaceOnUse">
<stop stop-color="#4D759D"/>
<stop offset="1" stop-color="#769A42"/>
</linearGradient>
<linearGradient id="paint1_linear_518_5728" x1="-266.006" y1="540.179" x2="1101.95" y2="540.179" gradientUnits="userSpaceOnUse">
<stop stop-color="#4D759D"/>
<stop offset="1" stop-color="#769A42"/>
</linearGradient>
<linearGradient id="paint2_linear_518_5728" x1="-265.999" y1="540.173" x2="1101.98" y2="540.173" gradientUnits="userSpaceOnUse">
<stop stop-color="#4D759D"/>
<stop offset="1" stop-color="#769A42"/>
</linearGradient>
<linearGradient id="paint3_linear_518_5728" x1="-266.069" y1="540.182" x2="1101.7" y2="540.182" gradientUnits="userSpaceOnUse">
<stop stop-color="#4D759D"/>
<stop offset="1" stop-color="#769A42"/>
</linearGradient>
<linearGradient id="paint4_linear_518_5728" x1="-266.023" y1="540.172" x2="1101.89" y2="540.172" gradientUnits="userSpaceOnUse">
<stop stop-color="#4D759D"/>
<stop offset="1" stop-color="#769A42"/>
</linearGradient>
<linearGradient id="paint5_linear_518_5728" x1="-228.155" y1="1565.26" x2="-90.6143" y2="190.848" gradientUnits="userSpaceOnUse">
<stop stop-color="#4D759D"/>
<stop offset="1" stop-color="#769A42"/>
</linearGradient>
<linearGradient id="paint6_linear_518_5728" x1="-266.103" y1="540.194" x2="1101.78" y2="540.194" gradientUnits="userSpaceOnUse">
<stop stop-color="#4D759D"/>
<stop offset="1" stop-color="#769A42"/>
</linearGradient>
<linearGradient id="paint7_linear_518_5728" x1="-266.006" y1="540.194" x2="1101.95" y2="540.194" gradientUnits="userSpaceOnUse">
<stop stop-color="#BECEDB"/>
<stop offset="1" stop-color="#F3F1FD"/>
</linearGradient>
<linearGradient id="paint8_linear_518_5728" x1="-266.101" y1="540.152" x2="1101.95" y2="540.152" gradientUnits="userSpaceOnUse">
<stop stop-color="#9D9EAA"/>
<stop offset="0.99" stop-color="#7AB3FB"/>
</linearGradient>
</defs>
</svg>
