<svg width="170" height="170" viewBox="0 0 170 170" fill="none" xmlns="http://www.w3.org/2000/svg">
<g filter="url(#filter0_d_24_696)">
<rect x="10" y="10" width="130" height="130" rx="30" fill="url(#paint0_linear_24_696)" shape-rendering="crispEdges"/>
<g clip-path="url(#clip0_24_696)">
<path d="M119 49.0331L116.622 65.1376L112.535 62.2765C110.667 64.4014 108.796 66.3205 106.962 68.0522C101.922 72.805 97.1559 76.1403 93.492 78.3993C89.927 80.5989 84.3378 83.9936 76.1763 86.4325C72.2778 87.5986 64.6845 89.7921 54.7737 89.0376C51.4433 88.783 48.6225 88.5239 45.5963 87.5331C43.9906 87.0072 39.4003 85.4554 36.195 81.9205C35.6824 81.355 34.7406 80.3017 33.9285 78.692C33.192 77.2317 32.8415 75.8689 32.6099 74.968C32.4354 74.2912 32.3212 73.7166 32.2471 73.3004C32.0711 72.2197 31.9553 70.9194 32.0201 69.4515C32.1467 66.6391 32.8909 64.3709 33.5456 62.8435C34.35 60.333 35.633 57.2249 37.7375 53.9658C41.5773 48.0149 46.3096 44.4083 49.3852 42.4465C52.9642 40.4374 60.122 37.0702 69.599 37.0001C75.5417 36.9574 79.956 38.2287 81.2668 38.6326C94.4107 42.6782 101.45 53.5421 103.673 57.3422L98.266 62.4594C92.8358 50.591 80.9549 43.105 68.4286 43.5669C53.1 44.1324 44.0168 56.3331 41.7117 60.9549C39.6968 64.9959 39.4451 69.4286 39.4451 69.4286C39.3262 71.5261 39.2243 73.8614 40.5969 76.1418C41.372 77.4298 42.547 78.5837 44.6838 79.7361C46.1707 80.5379 50.8057 82.7878 60.1035 82.3046C61.49 82.233 67.4251 81.8687 75.1897 79.2971C80.5504 77.5213 84.7547 75.3644 87.6373 73.6846C90.3778 72.1465 93.4256 70.2091 96.5923 67.7778C99.2943 65.7032 101.613 63.6286 103.577 61.6881C103.976 61.2796 104.374 60.8695 104.771 60.461L107.366 58.019L103.502 54.7905L118.997 49.0316L119 49.0331Z" fill="#4C5A6A"/>
<path d="M33.5441 62.8467C32.8416 64.9716 32.3274 67.1803 32.0186 69.4546C32.1684 66.3282 33.0778 63.9305 33.5441 62.8467Z" fill="#4C5A6A"/>
<path d="M32.5342 82.6005C33.6057 84.0196 35.4322 86.0561 38.2376 87.7542C40.007 88.8258 41.6792 89.4675 43.0116 89.8639C43.9673 91.4858 50.3363 101.885 63.5975 104.464C77.0285 107.077 87.0057 99.6196 89.087 97.9703C90.7977 96.6151 96.4394 92.0238 99.1197 83.9571C100.029 81.2209 100.353 78.8171 100.475 77.1159C102.748 75.3004 105.021 73.4834 107.294 71.668C107.521 74.4865 107.494 78.125 106.625 82.2331C104.785 90.9309 100.193 96.8819 97.5217 99.8421C95.198 102.264 90.9428 106.078 84.5353 108.811C77.5072 111.81 71.2293 112.082 67.7585 111.985C64.4127 111.735 59.6773 110.979 54.4741 108.738C48.7568 106.276 45.0991 103.153 44.0692 102.244C39.4991 98.2157 37.0303 94.0375 35.9695 92.0467C34.0102 88.37 33.0422 85.0089 32.5327 82.6005H32.5342Z" fill="#4C5A6A"/>
<path d="M50.9832 94.9077C52.0269 95.9458 53.5554 97.2582 55.6275 98.4289C57.6825 99.592 59.5878 100.229 61.0159 100.593C60.9912 97.6713 60.9665 94.7477 60.9418 91.8255L50.9091 91.6792C50.9338 92.7554 50.9585 93.8316 50.9832 94.9077Z" fill="#20C7FE"/>
<path d="M74.5782 89.7359L74.8376 101.769C73.4913 102.106 71.569 102.432 69.2639 102.319C67.3262 102.225 65.7065 101.85 64.5084 101.475C64.5331 98.234 64.5578 94.9933 64.5825 91.7526C66.3519 91.4858 68.2016 91.1596 70.1192 90.7618C71.6678 90.4417 73.1547 90.0956 74.5782 89.7344V89.7359Z" fill="#FF0004"/>
<path d="M78.1448 88.818C79.8911 88.2098 81.7176 87.5178 83.6074 86.7266C85.244 86.0422 86.7926 85.3395 88.2517 84.6353V94.9809C86.9887 95.9275 85.5297 96.9168 83.8668 97.8786C81.8195 99.0645 79.8787 99.97 78.1448 100.667V88.818Z" fill="#F8B90B"/>
<path d="M60.9403 79.1705C59.3793 79.2574 57.6887 79.291 55.8869 79.2437C54.1082 79.198 52.4438 79.0776 50.9075 78.9129V63.1011H60.9403V79.169V79.1705Z" fill="#20C7FE"/>
<path d="M74.7265 76.3095C73.4095 76.8598 71.8161 77.4162 69.971 77.8506C67.9129 78.3339 66.0555 78.5442 64.5084 78.6204V51.5103H74.8376L74.7265 76.3095Z" fill="#FF0004"/>
<path d="M88.3258 69.8521C86.9084 70.6371 85.434 71.4222 83.9039 72.1996C81.9492 73.1934 80.0393 74.108 78.1819 74.951C78.1695 68.7881 78.1572 62.6253 78.1448 56.4624H88.3999C88.3752 60.9256 88.3505 65.3889 88.3258 69.8521Z" fill="#F8B90B"/>
</g>
</g>
<defs>
<filter id="filter0_d_24_696" x="0" y="0" width="170" height="170" filterUnits="userSpaceOnUse" color-interpolation-filters="sRGB">
<feFlood flood-opacity="0" result="BackgroundImageFix"/>
<feColorMatrix in="SourceAlpha" type="matrix" values="0 0 0 0 0 0 0 0 0 0 0 0 0 0 0 0 0 0 127 0" result="hardAlpha"/>
<feOffset dx="10" dy="10"/>
<feGaussianBlur stdDeviation="10"/>
<feComposite in2="hardAlpha" operator="out"/>
<feColorMatrix type="matrix" values="0 0 0 0 0 0 0 0 0 0 0 0 0 0 0 0 0 0 0.25 0"/>
<feBlend mode="normal" in2="BackgroundImageFix" result="effect1_dropShadow_24_696"/>
<feBlend mode="normal" in="SourceGraphic" in2="effect1_dropShadow_24_696" result="shape"/>
</filter>
<linearGradient id="paint0_linear_24_696" x1="10" y1="10" x2="140" y2="140" gradientUnits="userSpaceOnUse">
<stop stop-color="white"/>
<stop offset="1" stop-color="#E1E1E1"/>
</linearGradient>
<clipPath id="clip0_24_696">
<rect width="87" height="75" fill="white" transform="translate(32 37)"/>
</clipPath>
</defs>
</svg>
