<svg width="717" height="730" viewBox="0 0 717 730" fill="none" xmlns="http://www.w3.org/2000/svg">
<path d="M248.604 305.218C265.914 318.683 290.863 315.561 304.328 298.234C317.794 280.924 314.671 255.974 297.344 242.509C282.536 230.991 262.136 231.629 248.134 242.878L239.42 236.095L226.492 240.125L227.969 227.18L217.056 218.701L204.111 222.731L205.589 209.786L196.203 202.499L188.312 204.951L189.219 197.06L183.762 192.812L171.372 194.037L169.709 213.077L234.618 263.53C230.605 278.506 235.592 295.094 248.604 305.201V305.218ZM295.883 291.669C292.022 296.639 284.869 297.529 279.9 293.667C274.93 289.805 274.04 282.653 277.902 277.683C281.763 272.714 288.916 271.824 293.885 275.685C298.855 279.547 299.745 286.699 295.883 291.669Z" fill="#EBEBEB"/>
<path d="M300.92 153.474C308.358 144.374 306.998 130.992 297.915 123.555C288.815 116.117 275.434 117.477 267.996 126.56C261.633 134.334 261.716 145.264 267.559 152.903L263.815 157.486L265.813 164.471L258.913 163.514L254.228 169.239L256.226 176.224L249.326 175.267L245.296 180.203L246.505 184.451L242.291 183.863L239.94 186.734L240.427 193.383L250.585 194.524L278.439 160.441C286.397 162.792 295.346 160.324 300.92 153.491V153.474ZM294.288 127.987C296.891 130.119 297.277 133.964 295.145 136.567C293.012 139.169 289.167 139.555 286.565 137.423C283.963 135.291 283.577 131.446 285.709 128.843C287.841 126.241 291.686 125.855 294.288 127.987Z" fill="#EBEBEB"/>
<path d="M211.113 9.25107V132.47H34.1334L27.7702 10.1073L211.113 9.25107Z" fill="#E0E0E0"/>
<path d="M27.7702 10.1073V132.201H204.749V10.1073L27.7702 10.1073Z" fill="white"/>
<path d="M26.9307 133.041V9.26786H205.589V133.041H26.9307ZM28.5928 131.362H203.893V10.9468H28.6096V131.362H28.5928Z" fill="#E0E0E0"/>
<path d="M185.559 25.2851H46.9271V117.04H185.559V25.2851Z" fill="white"/>
<path d="M185.576 25.2851C185.576 25.2851 185.341 25.2851 184.887 25.3019C184.417 25.3019 183.762 25.3019 182.923 25.3187C181.16 25.3187 178.608 25.3523 175.317 25.3691C168.652 25.3859 158.981 25.4362 146.741 25.4698C122.296 25.5202 87.6922 25.5874 46.9439 25.6713L47.3468 25.2684C47.3468 53.307 47.3636 84.3678 47.3804 117.007L46.9439 116.587C99.2435 116.621 147.463 116.654 185.576 116.671L185.223 117.024C185.307 89.1024 185.357 66.2014 185.408 50.2681C185.441 42.293 185.475 36.0809 185.492 31.7995C185.508 29.684 185.525 28.0722 185.525 26.9473C185.525 25.856 185.559 25.2684 185.559 25.2684C185.559 25.2684 185.576 25.8056 185.592 26.8802C185.592 27.9883 185.609 29.5833 185.626 31.6652C185.643 35.913 185.676 42.1083 185.71 50.0498C185.76 66.0503 185.811 89.0185 185.895 117.024V117.376H185.542C147.413 117.393 99.2099 117.426 46.9103 117.46H46.4738V117.024C46.4738 84.3677 46.4906 53.307 46.5074 25.2684V24.8654H46.9103C87.7594 24.9494 122.464 25.0165 146.976 25.0669C159.166 25.1172 168.82 25.1508 175.452 25.1676C178.725 25.1844 181.244 25.2012 182.99 25.218C183.813 25.218 184.451 25.2348 184.921 25.2348C185.357 25.2348 185.559 25.2516 185.559 25.2516L185.576 25.2851Z" fill="#E0E0E0"/>
<path d="M27.7702 9.77155C27.8373 9.67081 28.9958 10.4431 30.8091 11.7359C32.6224 13.0455 35.0904 14.8924 37.7432 17.0247C40.4127 19.1569 42.7465 21.1717 44.3919 22.6828C46.0372 24.1938 47.011 25.1844 46.9271 25.2684C46.7592 25.453 42.5114 21.944 37.1891 17.6962C31.8668 13.4653 27.6023 9.95623 27.7534 9.75476L27.7702 9.77155Z" fill="#E0E0E0"/>
<path d="M204.733 10.1073C204.884 10.292 200.72 13.8514 195.414 18.032C190.126 22.2294 185.71 25.4698 185.559 25.2684C185.408 25.0837 189.572 21.5243 194.877 17.3437C200.166 13.163 204.581 9.90587 204.733 10.1073Z" fill="#E0E0E0"/>
<path d="M204.598 132.218C198.017 126.879 191.452 121.557 184.87 116.218L204.598 132.218Z" fill="white"/>
<path d="M184.87 116.234C185.022 116.05 189.555 119.475 195.011 123.89C200.468 128.306 204.749 132.033 204.598 132.235C204.447 132.42 199.914 128.995 194.457 124.579C189.018 120.163 184.719 116.436 184.87 116.251V116.234Z" fill="#E0E0E0"/>
<path d="M27.7702 132.201C27.6191 132.017 31.7493 128.508 36.9876 124.361C42.226 120.214 46.5913 117.007 46.7424 117.208C46.8935 117.393 42.7633 120.902 37.5249 125.049C32.2866 129.196 27.9213 132.403 27.7702 132.201Z" fill="#E0E0E0"/>
<path d="M75.0833 53.8611V84.586H162.322V53.8611H75.0833Z" fill="#E0E0E0"/>
<path d="M650.446 709.092C650.446 709.327 506.257 709.529 328.422 709.529C150.586 709.529 6.36341 709.327 6.36341 709.092C6.36341 708.857 150.536 708.656 328.422 708.656C506.307 708.656 650.446 708.857 650.446 709.092Z" fill="#263238"/>
<path d="M515.794 648.314L557.365 708.74L572.207 709.092L544.974 646.954L515.794 648.314Z" fill="#263238"/>
<path d="M77.2995 651.403L55.4058 708.471H66.3527L104.599 651.655L77.2995 651.403Z" fill="#263238"/>
<path d="M67.9141 443.984L69.5259 517.842C69.761 528.285 78.1558 536.696 88.5989 536.931L501.942 546.132C512.889 546.384 521.888 537.57 521.888 526.623V437.655C521.888 411.396 502.53 389.149 476.506 385.556C400.835 375.147 244.776 359.146 118.652 381.88C88.7668 387.269 67.2593 413.612 67.9141 443.984Z" fill="#0C69B0"/>
<path d="M66.0672 469.79C66.0672 469.79 32.0179 454.024 25.0502 469.79C18.0826 485.555 25.8226 504.897 33.5626 515.726C41.3026 526.556 41.1683 659.68 41.1683 659.68L557.583 654.156L563.694 526.102C563.694 526.102 588.459 495.596 586.914 482.449C585.37 469.286 564.467 450.146 540.474 469.79C516.482 489.417 510.287 530.434 510.287 530.434L98.5551 533.523C98.5551 533.523 99.9151 475.884 66.0505 469.773L66.0672 469.79Z" fill="#0C69B0"/>
<path d="M505.031 556.021C505.031 556.256 413.545 556.458 300.719 556.458C187.893 556.458 96.3893 556.256 96.3893 556.021C96.3893 555.786 187.859 555.585 300.719 555.585C413.578 555.585 505.031 555.786 505.031 556.021Z" fill="#263238"/>
<path d="M96.4061 612.384C96.4061 612.384 96.3725 612.25 96.3557 611.981C96.3557 611.662 96.3221 611.276 96.3053 610.789C96.2717 609.748 96.2382 608.203 96.2214 606.222C96.2214 602.176 96.2046 596.451 96.1878 589.399C96.171 575.195 96.2885 555.585 95.6337 533.943C95.2476 523.13 94.8446 512.788 93.2664 503.587C92.9642 502.479 92.662 501.371 92.3765 500.297C91.9568 499.239 91.5539 498.198 91.1005 497.174C90.2107 495.142 89.304 493.195 88.3135 491.365C86.3659 487.688 84.2336 484.447 82.0342 481.694C79.8347 478.94 77.5345 476.69 75.3687 474.927C73.1692 473.198 71.1041 471.922 69.3412 471.049C65.7986 469.303 63.5992 468.883 63.6495 468.766C63.6495 468.766 63.7839 468.766 64.0525 468.833C64.3547 468.917 64.7409 469.018 65.211 469.135C66.2351 469.387 67.6958 469.907 69.5091 470.747C71.3224 471.586 73.4379 472.829 75.7045 474.558C77.9375 476.321 80.288 478.554 82.5546 481.324C84.8212 484.078 87.0039 487.352 89.0018 491.046C90.0092 492.876 90.9494 494.84 91.8561 496.888C92.3094 497.913 92.7291 498.97 93.1657 500.028C93.4679 501.153 93.7869 502.295 94.1059 503.436C95.7513 512.755 96.1542 523.097 96.5572 533.926C97.212 555.602 96.9937 575.229 96.8426 589.416C96.7418 596.451 96.6579 602.176 96.6075 606.239C96.5739 608.17 96.5572 609.698 96.5404 610.806C96.5404 611.293 96.5068 611.679 96.5068 611.998C96.5068 612.266 96.4732 612.401 96.4732 612.401L96.4061 612.384Z" fill="#263238"/>
<path d="M62.0377 499.524C62.0377 499.524 62.4743 499.205 63.4145 499.105C64.3379 499.004 65.7818 499.188 67.2089 500.162C67.8973 500.649 68.5857 501.338 69.0558 502.261C69.5091 503.168 69.7442 504.309 69.5427 505.451C69.2069 507.701 67.4272 510.068 64.7241 510.605C62.0042 511.059 59.5025 509.514 58.344 507.566C57.7396 506.593 57.4878 505.468 57.5213 504.444C57.5717 503.419 57.8739 502.513 58.2769 501.757C59.0996 500.246 60.258 499.407 61.1143 499.037C61.9706 498.651 62.5078 498.651 62.5078 498.685C62.5246 498.752 62.0377 498.886 61.2822 499.34C60.5267 499.776 59.5193 500.649 58.8477 502.043C58.1761 503.403 57.9411 505.434 59.0492 507.13C60.0901 508.809 62.3232 510.135 64.5898 509.732C66.8396 509.296 68.4514 507.248 68.7704 505.317C69.1565 503.319 68.082 501.556 66.8564 500.666C65.6307 499.726 64.3211 499.457 63.4481 499.457C62.575 499.457 62.0881 499.625 62.0545 499.541L62.0377 499.524Z" fill="#263238"/>
<path d="M64.3715 532.667C64.3715 532.667 63.2298 531.827 62.0377 529.913C60.8457 528.016 59.6704 525.011 59.6368 521.535C59.6032 518.06 60.7114 515.021 61.8363 513.09C62.978 511.143 64.0357 510.219 64.1029 510.286C64.2204 510.37 63.3305 511.445 62.3735 513.392C61.4165 515.323 60.4595 518.228 60.4931 521.535C60.5267 524.826 61.5508 527.714 62.5582 529.628C63.5656 531.559 64.4722 532.6 64.3547 532.684L64.3715 532.667Z" fill="#263238"/>
<path d="M58.982 482.819C59.1163 482.869 58.747 483.792 58.4615 485.32C58.1761 486.848 58.0586 489.014 58.5455 491.331C59.0492 493.648 60.023 495.579 60.9128 496.855C61.7859 498.131 62.491 498.836 62.4071 498.937C62.3399 499.021 61.4837 498.483 60.4259 497.224C59.3682 495.982 58.2265 493.967 57.706 491.516C57.1855 489.064 57.4206 486.747 57.8739 485.186C58.3272 483.608 58.8981 482.768 58.982 482.819Z" fill="#263238"/>
<path d="M48.9251 501.388C49.1097 501.22 50.6712 502.798 53.0553 504.007C55.4226 505.266 57.6053 505.636 57.5717 505.888C57.5717 506.106 55.1876 506.106 52.6524 504.779C50.1003 503.47 48.7404 501.505 48.9251 501.371V501.388Z" fill="#263238"/>
<path d="M559.581 612.384C559.581 612.619 443.095 612.82 299.443 612.82C155.791 612.82 39.271 612.619 39.271 612.384C39.271 612.149 155.724 611.947 299.443 611.947C443.162 611.947 559.581 612.149 559.581 612.384Z" fill="#263238"/>
<path d="M503.235 530.87C503.47 530.87 503.671 549.104 503.671 571.602C503.671 594.1 503.47 612.334 503.235 612.334C503 612.334 502.798 594.1 502.798 571.602C502.798 549.104 503 530.87 503.235 530.87Z" fill="#263238"/>
<path d="M330.789 389.989C330.789 389.989 330.52 390.022 329.983 390.056C329.412 390.073 328.64 390.106 327.632 390.14C325.534 390.207 322.495 390.291 318.6 390.392C310.725 390.577 299.392 390.828 285.407 391.164C257.334 391.735 218.618 392.507 175.871 393.364C165.176 393.615 154.716 393.582 144.676 394.253C134.653 394.925 124.948 396.319 116.268 399.441C107.554 402.43 100.033 407.433 94.6599 413.595C91.9904 416.684 89.7406 419.975 88.0448 423.383C86.2316 426.741 85.0395 430.2 83.9314 433.508C81.9334 440.207 81.0436 446.503 80.5399 452.026C80.0194 457.567 79.969 462.369 79.9354 466.281C79.9354 470.193 80.0026 473.249 80.053 475.297C80.0698 476.304 80.0866 477.077 80.1033 477.647C80.1033 478.185 80.1033 478.453 80.1033 478.453C80.1033 478.453 80.0698 478.185 80.0194 477.664C79.9858 477.093 79.9355 476.321 79.8851 475.314C79.7843 473.249 79.65 470.21 79.5997 466.281C79.5661 462.352 79.5997 457.55 80.053 451.993C80.5231 446.436 81.3794 440.106 83.3437 433.34C84.4351 429.999 85.6271 426.489 87.4404 423.081C89.1362 419.623 91.4027 416.281 94.1059 413.125C99.5289 406.829 107.168 401.725 115.983 398.686C124.764 395.513 134.535 394.086 144.609 393.397C154.7 392.726 165.159 392.742 175.854 392.491C218.618 391.735 257.334 391.047 285.407 390.543C299.392 390.341 310.725 390.174 318.616 390.056C322.512 390.022 325.534 389.989 327.649 389.972C328.657 389.972 329.429 389.972 330 389.972C330.537 389.972 330.806 390.006 330.806 390.006L330.789 389.989Z" fill="#263238"/>
<path d="M198.604 447.51C198.604 447.51 198.05 447.796 197.177 448.45C196.321 449.088 195.196 450.28 194.575 452.094C193.937 453.857 193.937 456.375 195.515 458.339C196.993 460.287 199.847 461.664 202.634 461.026C205.404 460.337 207.335 457.819 207.788 455.418C208.309 452.95 207.167 450.717 205.807 449.424C204.43 448.098 202.903 447.544 201.845 447.359C200.787 447.174 200.166 447.241 200.149 447.174C200.149 447.141 200.753 446.939 201.878 447.023C203.003 447.107 204.665 447.594 206.21 448.988C206.966 449.676 207.688 450.583 208.158 451.724C208.611 452.866 208.812 454.226 208.561 455.586C208.107 458.272 206.009 461.093 202.819 461.899C199.612 462.621 196.472 461.059 194.86 458.86C194.021 457.769 193.584 456.459 193.484 455.233C193.383 454.008 193.635 452.866 193.987 451.909C194.743 449.978 196.019 448.786 196.976 448.198C197.95 447.611 198.588 447.51 198.588 447.544L198.604 447.51Z" fill="#263238"/>
<path d="M191.519 491.012C191.418 491.029 190.814 489.165 190.243 486.042C189.706 482.953 189.219 478.436 190.512 473.651C191.821 468.866 194.978 465.29 197.748 463.678C199.142 462.856 200.384 462.419 201.257 462.251C202.13 462.067 202.634 462.067 202.634 462.117C202.684 462.302 200.653 462.47 198.067 464.199C195.498 465.878 192.594 469.32 191.334 473.887C190.109 478.47 190.461 482.869 190.848 485.958C191.251 489.064 191.653 490.978 191.519 491.012Z" fill="#263238"/>
<path d="M197.631 421.57C197.748 421.688 196.422 422.846 195.162 425.281C193.886 427.665 192.846 431.51 193.752 435.556C194.692 439.602 197.312 442.624 199.494 444.203C201.694 445.848 203.389 446.318 203.322 446.469C203.322 446.52 202.869 446.469 202.13 446.217C201.375 445.982 200.317 445.512 199.142 444.723C196.791 443.195 193.92 440.089 192.913 435.757C191.939 431.426 193.165 427.379 194.642 424.978C195.364 423.753 196.12 422.88 196.69 422.326C197.261 421.772 197.631 421.537 197.664 421.57H197.631Z" fill="#263238"/>
<path d="M196.103 455.183C196.103 455.452 191.872 455.569 187.003 457.231C182.117 458.843 178.658 461.328 178.507 461.093C178.356 460.942 181.664 458.071 186.717 456.392C191.754 454.679 196.136 454.965 196.103 455.166V455.183Z" fill="#263238"/>
<path d="M153.793 299.56C157.654 293.818 162.674 288.731 168.853 285.608C175.032 282.485 182.402 281.444 188.984 283.593C195.565 285.742 201.123 291.316 202.449 298.099C203.507 303.472 202.08 309.5 204.85 314.217C208.04 319.657 215.746 321.387 218.466 327.078C220.095 330.52 219.44 334.684 217.66 338.042C215.881 341.4 213.077 344.086 210.29 346.672C211.986 347.881 213.698 349.106 214.89 350.802C216.082 352.498 216.67 354.764 215.864 356.678C215.024 358.693 212.909 359.852 210.894 360.708C201.593 364.653 191.066 365.644 181.193 363.495C178.541 362.924 175.502 362.202 173.319 363.814" fill="#263238"/>
<path d="M221.002 319.473L215.579 335.926L252.298 356.762L215.394 357.954L218.147 387.89L289.235 370.446C289.235 370.446 293.499 341.45 221.002 319.489L215.898 318.297C214.051 317.861 212.54 316.551 211.835 314.788C211.281 313.395 210.256 312.253 208.93 311.548L202.869 308.391L202.903 313.193L206.227 317.105L205.69 326.39C205.404 330.503 208.141 334.197 212.137 335.154L215.528 335.96" fill="#B78876"/>
<path d="M140.596 378.908C139.136 378.908 125.586 382.199 117.83 392.071C110.09 401.943 98.8573 438.964 98.8573 438.964L127.433 443.9L139.757 474.86C139.757 474.86 212.708 465.307 208.829 461.462C204.951 457.617 196.993 451.691 196.993 451.691L213.816 395.765L233.997 384.885L227.214 356.947L186.617 362.437L140.613 378.891L140.596 378.908Z" fill="#FAFAFA"/>
<path d="M210.34 408.676C210.34 408.911 187.59 409.112 159.552 409.112C131.513 409.112 108.763 408.911 108.763 408.676C108.763 408.441 131.496 408.239 159.552 408.239C187.607 408.239 210.34 408.441 210.34 408.676Z" fill="#0C69B0"/>
<path d="M205.79 425.113C205.79 425.348 183.04 425.549 155.002 425.549C126.963 425.549 104.213 425.348 104.213 425.113C104.213 424.878 126.946 424.676 155.002 424.676C183.057 424.676 205.79 424.878 205.79 425.113Z" fill="#0C69B0"/>
<path d="M205.79 442.876C205.79 443.111 188.564 443.313 167.325 443.313C146.086 443.313 128.844 443.111 128.844 442.876C128.844 442.641 146.07 442.44 167.325 442.44C188.581 442.44 205.79 442.641 205.79 442.876Z" fill="#0C69B0"/>
<path d="M211.7 459.968C211.7 460.203 194.474 460.405 173.235 460.405C151.996 460.405 134.754 460.203 134.754 459.968C134.754 459.733 151.98 459.531 173.235 459.531C194.491 459.531 211.7 459.733 211.7 459.968Z" fill="#0C69B0"/>
<path d="M229.9 386.581C229.9 386.816 218.517 387.017 204.481 387.017C190.445 387.017 179.061 386.816 179.061 386.581C179.061 386.346 190.445 386.144 204.481 386.144C218.517 386.144 229.9 386.346 229.9 386.581Z" fill="#0C69B0"/>
<path d="M231.747 369.153C231.747 369.388 220.414 369.858 206.428 370.177C192.443 370.496 181.093 370.58 181.093 370.328C181.093 370.093 192.426 369.623 206.412 369.304C220.397 368.985 231.73 368.901 231.747 369.153Z" fill="#0C69B0"/>
<path d="M133.36 417.222C133.595 417.272 132.369 423.434 130.64 430.956C128.894 438.494 127.299 444.555 127.064 444.488C126.829 444.438 128.054 438.293 129.784 430.754C131.53 423.215 133.125 417.154 133.36 417.222Z" fill="#263238"/>
<path d="M212.758 626.84L191.502 693.898L217.14 696.466L241.2 638.223L212.758 626.84Z" fill="#B78876"/>
<path d="M231.512 670.375L219.306 700.647C219.306 700.647 245.985 723.229 244.272 729.038L184.719 707.48L201.811 659.529L231.529 670.375H231.512Z" fill="#455A64"/>
<path d="M201.828 691.413C200.569 691.312 199.293 692.319 199.142 693.578C198.991 694.838 199.998 696.131 201.257 696.265C202.516 696.382 204.078 695.224 204.095 693.948C204.111 692.672 202.835 691.228 201.576 691.396" fill="#E0E0E0"/>
<path d="M184.719 707.48L186.633 702.712L243.013 725.177C243.013 725.177 245.246 727.292 244.272 729.055L184.719 707.497V707.48Z" fill="#E0E0E0"/>
<path d="M220.38 700.697C220.263 700.983 218.769 700.597 216.989 701C215.209 701.369 214.017 702.359 213.782 702.158C213.53 702.007 214.605 700.429 216.754 699.959C218.903 699.472 220.532 700.462 220.38 700.697Z" fill="#263238"/>
<path d="M225.686 705.549C225.652 705.852 224.209 705.885 222.781 706.758C221.321 707.581 220.599 708.823 220.313 708.706C220.028 708.656 220.431 706.876 222.244 705.818C224.041 704.744 225.787 705.247 225.703 705.533L225.686 705.549Z" fill="#263238"/>
<path d="M226.525 714.314C226.24 714.28 226.358 712.685 227.684 711.359C228.994 710.032 230.589 709.898 230.639 710.183C230.723 710.486 229.531 711.023 228.456 712.114C227.365 713.189 226.828 714.381 226.542 714.314H226.525Z" fill="#263238"/>
<path d="M222.395 693.495C222.177 693.713 220.985 692.823 219.306 692.353C217.627 691.832 216.15 691.916 216.099 691.614C216.015 691.345 217.644 690.724 219.625 691.312C221.606 691.9 222.63 693.31 222.412 693.495H222.395Z" fill="#263238"/>
<path d="M224.746 687.333C224.712 687.45 223.487 687.215 221.774 686.241C220.918 685.755 219.944 685.066 219.004 684.16C218.534 683.706 218.064 683.186 217.627 682.632C217.409 682.363 217.157 682.061 216.972 681.608C216.754 681.188 216.855 680.348 217.392 680.013C217.862 679.66 218.466 679.66 218.903 679.811C219.34 679.962 219.675 680.18 219.961 680.365C220.565 680.768 221.102 681.205 221.589 681.675C222.546 682.598 223.235 683.589 223.688 684.479C224.611 686.258 224.679 687.517 224.561 687.534C224.393 687.585 224.057 686.426 223.033 684.865C222.53 684.092 221.824 683.219 220.918 682.397C220.464 681.994 219.961 681.608 219.39 681.255C218.819 680.869 218.282 680.667 218.013 680.886C217.912 680.97 217.896 681.003 217.963 681.238C218.03 681.456 218.231 681.725 218.433 681.994C218.836 682.531 219.256 683.018 219.675 683.471C220.532 684.361 221.388 685.066 222.16 685.62C223.688 686.712 224.779 687.199 224.729 687.35L224.746 687.333Z" fill="#263238"/>
<path d="M224.225 687.618C224.108 687.618 223.906 686.376 224.477 684.445C224.763 683.488 225.266 682.397 226.072 681.322C226.475 680.785 226.945 680.264 227.482 679.794C228.037 679.324 228.758 678.703 229.934 678.972C230.538 679.156 230.857 679.794 230.874 680.248C230.924 680.718 230.84 681.087 230.79 681.456C230.656 682.195 230.387 682.867 230.068 683.471C229.43 684.663 228.523 685.536 227.684 686.09C225.955 687.215 224.628 687.115 224.628 687.014C224.578 686.829 225.804 686.644 227.231 685.486C227.936 684.915 228.675 684.092 229.195 683.018C229.447 682.481 229.648 681.893 229.766 681.272C229.9 680.6 229.85 680.013 229.581 679.996C229.279 679.878 228.607 680.18 228.188 680.6C227.684 681.02 227.247 681.473 226.861 681.943C226.106 682.884 225.568 683.857 225.199 684.714C224.477 686.426 224.393 687.635 224.225 687.618Z" fill="#263238"/>
<path d="M293.432 563.728L325.164 618.882L351.121 602.226L319.254 546.233L293.432 563.728Z" fill="#B78876"/>
<path d="M342.172 586.478L358.559 614.701C358.559 614.701 392.759 607.515 396.302 612.451L342.71 646.198L315.359 603.267L342.172 586.494V586.478Z" fill="#455A64"/>
<path d="M340.527 622.81C339.671 623.751 339.687 625.362 340.594 626.269C341.501 627.159 343.146 627.159 344.019 626.235C344.892 625.312 344.926 623.364 343.935 622.575C342.945 621.786 341.014 621.904 340.376 622.995" fill="#E0E0E0"/>
<path d="M342.693 646.181L340.107 641.749L392.457 611.058C392.457 611.058 395.496 610.587 396.285 612.451L342.693 646.198V646.181Z" fill="#E0E0E0"/>
<path d="M359.247 613.878C359.398 614.147 358.173 615.087 357.417 616.732C356.611 618.361 356.662 619.923 356.359 619.956C356.091 620.057 355.486 618.244 356.443 616.262C357.384 614.264 359.163 613.593 359.247 613.861V613.878Z" fill="#263238"/>
<path d="M366.332 612.669C366.551 612.888 365.694 614.046 365.51 615.708C365.275 617.37 365.795 618.714 365.527 618.865C365.308 619.066 364.167 617.639 364.435 615.574C364.687 613.509 366.165 612.418 366.332 612.669Z" fill="#263238"/>
<path d="M373.77 617.387C373.569 617.589 372.377 616.514 372.142 614.651C371.89 612.804 372.78 611.461 373.032 611.595C373.317 611.712 372.998 612.988 373.216 614.499C373.401 616.027 374.005 617.169 373.77 617.37V617.387Z" fill="#263238"/>
<path d="M354.798 607.868C354.832 608.17 353.404 608.573 351.994 609.597C350.55 610.604 349.711 611.813 349.442 611.679C349.174 611.578 349.677 609.916 351.373 608.724C353.052 607.515 354.798 607.582 354.798 607.868Z" fill="#263238"/>
<path d="M351.39 602.226C351.457 602.327 350.533 603.15 348.703 603.905C347.797 604.275 346.655 604.627 345.345 604.812C344.691 604.913 344.002 604.963 343.297 604.963C342.945 604.963 342.558 604.98 342.088 604.845C341.635 604.762 341.031 604.157 341.098 603.536C341.098 602.948 341.484 602.461 341.87 602.209C342.256 601.941 342.626 601.823 342.961 601.723C343.65 601.488 344.338 601.336 344.993 601.252C346.302 601.068 347.511 601.135 348.485 601.32C350.45 601.689 351.49 602.394 351.44 602.512C351.373 602.68 350.248 602.226 348.384 602.075C347.461 601.991 346.336 602.025 345.144 602.226C344.54 602.344 343.918 602.495 343.297 602.713C342.642 602.915 342.155 603.217 342.155 603.569C342.155 603.704 342.172 603.737 342.407 603.838C342.626 603.922 342.945 603.922 343.297 603.922C343.969 603.922 344.607 603.905 345.228 603.838C346.454 603.721 347.545 603.469 348.452 603.2C350.265 602.663 351.306 602.092 351.39 602.243V602.226Z" fill="#263238"/>
<path d="M351.289 602.814C351.222 602.915 350.114 602.293 348.955 600.665C348.384 599.859 347.83 598.784 347.478 597.492C347.31 596.854 347.176 596.165 347.142 595.427C347.125 594.705 347.058 593.748 347.998 592.992C348.519 592.639 349.224 592.774 349.593 593.042C349.996 593.294 350.231 593.58 350.483 593.848C350.97 594.419 351.356 595.04 351.625 595.661C352.179 596.904 352.313 598.146 352.229 599.154C352.061 601.202 351.155 602.209 351.088 602.126C350.92 602.042 351.507 600.967 351.474 599.137C351.457 598.23 351.255 597.139 350.735 596.081C350.483 595.544 350.131 595.024 349.711 594.553C349.274 594.033 348.771 593.714 348.586 593.899C348.317 594.067 348.133 594.772 348.2 595.376C348.233 596.031 348.317 596.652 348.452 597.257C348.72 598.432 349.157 599.456 349.61 600.262C350.533 601.874 351.423 602.68 351.306 602.814H351.289Z" fill="#263238"/>
<path d="M198.991 555.954L261.297 513.577L300.601 590.087L336.346 570.746C336.346 570.746 295.195 470.394 280.42 467.154C272.143 465.341 177.214 483.473 177.214 483.473L166.603 478.134L139.757 474.86L138.044 479.209C128.558 503.218 129.649 530.115 141.033 553.285L142.342 555.937H199.007L198.991 555.954Z" fill="#263238"/>
<path d="M177.114 502.966C177.584 505.065 229.094 553.301 229.094 553.301L199.377 653.183L243.735 661.661L288.278 541.347L206.865 461.479L169.693 477.127L177.13 502.966H177.114Z" fill="#263238"/>
<path d="M261.297 513.577C261.431 513.779 247.596 523.433 230.387 535.118C213.178 546.821 199.125 556.139 198.991 555.937C198.856 555.736 212.691 546.099 229.9 534.396C247.11 522.694 261.162 513.376 261.297 513.577Z" fill="#455A64"/>
<path d="M293.281 575.85C293.281 575.85 292.693 575.061 291.77 573.533C290.846 572.022 289.57 569.806 288.009 567.035C284.903 561.512 280.773 553.788 276.407 545.158C272.025 536.529 268.197 528.671 265.494 522.929C264.134 520.058 263.06 517.741 262.338 516.112C261.616 514.501 261.246 513.577 261.297 513.56C261.347 513.527 261.817 514.4 262.64 515.961C263.513 517.674 264.655 519.924 266.031 522.644C268.953 528.436 272.865 536.176 277.18 544.739C281.545 553.352 285.591 561.109 288.546 566.716C289.973 569.403 291.165 571.636 292.072 573.331C292.895 574.893 293.331 575.783 293.281 575.816V575.85Z" fill="#455A64"/>
<path d="M238.396 535.454C238.614 535.572 236.482 540.357 233.627 546.149C230.773 551.941 228.288 556.575 228.07 556.475C227.852 556.374 229.984 551.589 232.838 545.78C235.693 539.97 238.177 535.353 238.396 535.471V535.454Z" fill="#455A64"/>
<path d="M98.8573 438.981L88.8507 476.187C87.5579 481.005 88.1456 486.126 90.5129 490.508C94.6935 498.248 103.525 502.261 112.104 500.263L191.939 480.602L183.594 464.031L120.701 469.488L127.433 443.917L98.8573 438.981Z" fill="#B78876"/>
<path d="M146.036 304.16L146.187 308.979L148.001 381.191C148.202 389.569 155.589 396.067 164.555 395.781C173.621 395.479 180.908 388.377 180.824 379.915C180.74 371.016 180.824 361.665 180.824 361.665C180.824 361.665 192.258 359.633 194.457 344.657C195.549 337.219 195.028 325.03 194.289 315.074C193.618 306.108 185.643 299.51 176.711 300.567L146.019 304.177L146.036 304.16Z" fill="#B78876"/>
<path d="M188.497 323.384C188.547 324.392 187.725 325.265 186.667 325.332C185.609 325.399 184.719 324.644 184.669 323.619C184.619 322.612 185.441 321.739 186.499 321.655C187.557 321.588 188.447 322.343 188.497 323.368V323.384Z" fill="#263238"/>
<path d="M191.721 321.437C191.486 321.689 190.025 320.631 187.96 320.664C185.895 320.664 184.4 321.739 184.165 321.487C184.048 321.37 184.283 320.916 184.938 320.429C185.576 319.943 186.684 319.472 187.96 319.456C189.253 319.456 190.327 319.909 190.965 320.379C191.603 320.866 191.821 321.302 191.704 321.42L191.721 321.437Z" fill="#263238"/>
<path d="M168.148 324.14C168.198 325.147 167.376 326.02 166.318 326.088C165.26 326.155 164.37 325.399 164.32 324.375C164.27 323.368 165.092 322.495 166.15 322.411C167.208 322.343 168.098 323.099 168.148 324.123V324.14Z" fill="#263238"/>
<path d="M171.456 322.058C171.221 322.31 169.76 321.252 167.695 321.286C165.63 321.286 164.135 322.36 163.9 322.108C163.783 321.991 164.018 321.538 164.673 321.051C165.311 320.564 166.419 320.094 167.695 320.077C168.988 320.077 170.062 320.53 170.7 321C171.338 321.487 171.556 321.924 171.439 322.041L171.456 322.058Z" fill="#263238"/>
<path d="M179.112 337.269C179.112 337.152 180.388 336.917 182.453 336.631C182.973 336.564 183.477 336.463 183.561 336.094C183.678 335.708 183.46 335.154 183.192 334.533C182.688 333.257 182.151 331.93 181.58 330.537C179.347 324.845 177.735 320.178 177.953 320.094C178.188 320.01 180.169 324.543 182.402 330.235C182.94 331.628 183.46 332.971 183.947 334.247C184.149 334.852 184.501 335.523 184.249 336.312C184.115 336.715 183.729 337.001 183.393 337.085C183.057 337.185 182.755 337.202 182.503 337.219C180.421 337.353 179.112 337.387 179.112 337.269Z" fill="#263238"/>
<path d="M180.824 361.648C180.824 361.648 170.784 362.42 160.744 356.544C160.744 356.544 165.714 366.752 180.656 365.174L180.824 361.648Z" fill="#AA6550"/>
<path d="M172.278 318.667C172.043 319.221 170.012 318.851 167.577 319.036C165.143 319.17 163.162 319.791 162.859 319.271C162.725 319.019 163.094 318.515 163.9 318.012C164.706 317.508 165.982 317.055 167.443 316.954C168.904 316.87 170.213 317.155 171.086 317.558C171.959 317.961 172.379 318.415 172.278 318.683V318.667Z" fill="#263238"/>
<path d="M190.864 314.284C190.512 314.755 189.085 314.284 187.372 314.284C185.66 314.217 184.216 314.637 183.88 314.15C183.729 313.915 183.947 313.445 184.585 312.992C185.206 312.538 186.247 312.169 187.423 312.186C188.598 312.203 189.622 312.622 190.226 313.092C190.831 313.562 191.032 314.049 190.881 314.284H190.864Z" fill="#263238"/>
<path d="M178.893 344.724C178.306 344.892 177.685 344.69 177.097 344.539C176.509 344.371 175.955 344.22 175.485 344.069C175.015 343.918 174.478 343.7 173.907 343.498C173.353 343.263 172.715 343.062 172.362 342.575C172.01 342.105 172.077 341.299 172.883 340.577C173.655 339.872 175.216 339.368 176.862 339.922C178.507 340.476 179.464 341.803 179.649 342.827C179.867 343.885 179.447 344.573 178.877 344.741L178.893 344.724Z" fill="#AA6550"/>
<path d="M179.179 344.556C178.977 344.69 177.97 342.642 175.569 342.021C173.151 341.4 171.288 342.726 171.187 342.508C171.12 342.424 171.456 341.954 172.278 341.534C173.084 341.114 174.394 340.812 175.787 341.165C177.181 341.517 178.188 342.424 178.692 343.179C179.212 343.935 179.28 344.523 179.179 344.556Z" fill="#263238"/>
<path d="M163.313 294.422C168.098 301.541 166.872 312.051 160.61 317.894C157.033 321.219 151.711 323.821 151.358 328.69C150.956 334.079 157.201 338.109 157.218 343.532C157.218 349.089 150.804 352.632 149.562 358.055C148.555 362.42 151.157 366.785 154.179 370.093C157.201 373.401 160.828 376.322 162.641 380.419C164.639 384.935 164.068 390.257 162.137 394.807C160.19 399.341 157 403.219 153.692 406.896C149.243 405.301 144.575 404.26 139.858 403.823C140.16 402.044 140.445 400.264 140.747 398.467C140.848 400.549 139.102 402.363 137.138 403.001C135.173 403.655 133.024 403.404 130.959 403.085C124.663 402.094 118.468 400.499 112.491 398.333C115.043 395.764 117.645 393.145 119.24 389.905C120.835 386.648 121.255 382.601 119.425 379.495C117.947 376.994 115.227 375.382 113.867 372.796C111.836 368.935 113.515 364.032 116.403 360.758C119.29 357.484 123.219 355.352 126.644 352.665C130.086 349.979 133.242 346.353 133.528 341.987C133.88 336.329 129.314 331.192 129.885 325.55C130.523 319.137 137.306 315.208 139.975 309.348C141.906 305.101 141.637 299.862 144.609 296.252C146.792 293.583 150.435 292.374 153.894 292.559C157.336 292.743 160.626 294.154 163.564 295.967" fill="#263238"/>
<path d="M182.083 363.26C179.38 364.754 179.548 368.851 181.177 371.453C182.822 374.055 185.458 375.919 187.087 378.538C189.991 383.223 188.732 390.006 184.35 393.33L190.797 395.764L192.208 394.975L196.17 392.742L194.306 397.309H198.437C202.785 397.359 207.05 394.791 209.048 390.946C211.046 387.084 210.676 382.131 208.141 378.605C206.445 376.255 203.809 374.391 203.238 371.537C202.55 368.112 205.136 365.006 206.412 361.749C208.527 356.309 206.596 349.559 201.912 346.084" fill="#263238"/>
<path d="M134.267 495.461L135.308 490.055L178.574 482.281L191.15 415.576L271.505 406.006L258.006 477.211L134.267 495.461Z" fill="#455A64"/>
<path d="M227.231 451.489C225.132 451.086 223.789 448.786 224.259 446.352C224.729 443.917 226.811 442.289 228.926 442.691C231.042 443.094 232.368 445.395 231.898 447.829C231.428 450.264 229.346 451.892 227.231 451.489Z" fill="#EBEBEB"/>
<path d="M54.8518 227.382C55.6073 227.751 56.1278 228.506 56.1278 229.413V240.595C56.1278 241.3 55.792 241.955 55.2379 242.391C54.6839 242.811 53.9451 242.946 53.2736 242.761C51.4939 242.257 49.4959 242.559 47.8001 243.6C46.2387 244.557 45.1474 246.001 44.8116 247.596C44.4758 249.175 44.8955 250.954 45.9533 252.482C47.0782 254.111 48.8075 255.252 50.5704 255.538C54.1802 256.109 58.1929 253.506 59.3682 249.846C59.7376 248.671 61.0136 248.016 62.1888 248.385C63.3977 248.772 64.0189 250.031 63.6495 251.206C61.8195 256.948 55.6409 260.877 49.8653 259.97C46.8767 259.5 44.1064 257.687 42.2596 255.034C40.5135 252.499 39.8419 249.46 40.4127 246.69C41.0004 243.886 42.8304 241.367 45.4664 239.772C47.3636 238.614 49.5127 238.026 51.6282 238.043V229.43C51.6282 228.187 52.6356 227.18 53.878 227.18C54.2306 227.18 54.5496 227.264 54.8518 227.398V227.382Z" fill="#0C69B0"/>
<path d="M51.7625 222.68C51.7289 221.673 52.5348 220.817 53.559 220.8C54.5664 220.766 55.4226 221.572 55.4394 222.597C55.473 223.604 54.6671 224.46 53.6429 224.477C52.6356 224.511 51.7793 223.705 51.7625 222.68Z" fill="#0C69B0"/>
<path d="M106.547 282.552C106.547 282.552 105.993 282.636 105.069 283.022C104.163 283.392 102.904 284.198 101.947 285.692C101.477 286.431 101.107 287.337 100.99 288.361C100.889 289.369 101.023 290.494 101.544 291.518C102.534 293.566 104.885 295.329 107.554 295.195C110.224 295.01 112.356 292.979 113.095 290.829C113.498 289.755 113.515 288.613 113.28 287.623C113.045 286.632 112.558 285.776 112.004 285.087C110.895 283.711 109.536 283.056 108.595 282.804C107.638 282.535 107.067 282.569 107.067 282.519C107.067 282.519 107.202 282.485 107.47 282.485C107.605 282.485 107.773 282.485 107.957 282.519C108.159 282.535 108.377 282.569 108.629 282.636C109.619 282.854 111.047 283.476 112.255 284.886C112.843 285.591 113.38 286.481 113.649 287.539C113.918 288.596 113.901 289.822 113.498 290.981C113.112 292.139 112.356 293.264 111.332 294.12C110.325 294.993 108.998 295.581 107.554 295.682C106.127 295.749 104.734 295.312 103.626 294.574C102.501 293.852 101.628 292.827 101.107 291.719C100.553 290.611 100.419 289.402 100.553 288.328C100.704 287.237 101.124 286.296 101.628 285.524C102.652 283.979 104.012 283.19 104.969 282.854C105.204 282.754 105.422 282.703 105.624 282.67C105.808 282.619 105.976 282.586 106.11 282.586C106.379 282.552 106.513 282.552 106.513 282.586L106.547 282.552Z" fill="#263238"/>
<path d="M122.866 298.805C122.866 298.805 122.514 298.889 121.943 299.124C121.389 299.359 120.6 299.879 120.029 300.803C119.441 301.709 119.139 303.119 119.794 304.396C120.398 305.655 121.859 306.746 123.504 306.662C125.133 306.545 126.459 305.302 126.913 303.976C127.416 302.616 126.946 301.256 126.258 300.433C125.57 299.577 124.73 299.157 124.159 298.989C123.572 298.821 123.202 298.821 123.219 298.771C123.219 298.754 123.572 298.67 124.21 298.805C124.831 298.922 125.754 299.325 126.527 300.215C126.913 300.651 127.249 301.222 127.433 301.911C127.601 302.582 127.601 303.371 127.349 304.127C126.862 305.604 125.418 307.015 123.538 307.149C121.658 307.233 120.063 306.007 119.408 304.597C119.055 303.892 118.971 303.103 119.055 302.414C119.156 301.726 119.425 301.122 119.744 300.635C120.415 299.661 121.271 299.157 121.876 298.956C122.497 298.754 122.866 298.788 122.866 298.805Z" fill="#263238"/>
<path d="M103.827 249.275C103.827 249.275 103.827 248.99 103.827 248.436C103.827 247.865 103.844 247.042 103.877 245.968C103.877 245.43 103.894 244.826 103.911 244.154C103.911 243.483 103.81 242.761 103.76 241.972C103.693 241.183 103.626 240.326 103.558 239.42C103.542 238.966 103.474 238.496 103.374 238.026C103.29 237.556 103.206 237.052 103.105 236.549C102.517 232.486 101.006 227.6 98.4544 222.362C95.8688 217.14 91.9904 211.583 86.4834 206.697C85.795 206.092 85.0899 205.488 84.3847 204.867C83.646 204.296 82.8568 203.759 82.0845 203.188C81.6984 202.902 81.2954 202.634 80.9093 202.348C80.5231 202.063 80.1201 201.777 79.6836 201.542C78.8273 201.056 77.9711 200.552 77.1148 200.048C76.6783 199.796 76.2418 199.544 75.8052 199.293C75.3519 199.091 74.8818 198.873 74.4117 198.655C73.4883 198.235 72.548 197.798 71.591 197.379C70.634 196.976 69.6098 196.69 68.6193 196.321C68.1156 196.153 67.6119 195.985 67.1082 195.8C66.8564 195.716 66.6045 195.616 66.3527 195.549L65.5636 195.364C63.4649 194.894 61.3326 194.289 59.0996 194.105C57.9914 193.987 56.8833 193.786 55.7584 193.718C54.6335 193.685 53.4918 193.651 52.3333 193.634C51.7625 193.634 51.1749 193.584 50.604 193.618C50.0332 193.668 49.4455 193.702 48.8579 193.752C47.6994 193.853 46.5241 193.903 45.3489 194.037C43.0319 194.474 40.631 194.759 38.314 195.515C37.7264 195.683 37.1388 195.851 36.5511 196.002C36.2657 196.086 35.9635 196.153 35.6781 196.254L34.8218 196.589C33.6801 197.043 32.5216 197.479 31.3631 197.933C30.2214 198.436 29.1301 199.041 28.0052 199.595C27.4512 199.897 26.8635 200.132 26.343 200.468L24.7312 201.492C22.5318 202.768 20.5506 204.413 18.5023 206.008C17.5621 206.898 16.6051 207.788 15.6649 208.695L14.9429 209.366C14.7246 209.601 14.5064 209.853 14.2881 210.105L12.9785 211.583L11.6689 213.077L10.4937 214.689L9.31838 216.317L8.73074 217.14C8.54606 217.425 8.39495 217.711 8.22706 218.013C7.55547 219.171 6.8671 220.347 6.19551 221.505C5.62467 222.731 5.07061 223.973 4.49976 225.216C2.41785 230.253 1.09147 235.676 0.570997 241.25C0.201625 246.841 0.688524 252.415 1.96453 257.704C2.33391 259.013 2.70328 260.323 3.05586 261.632C3.54276 262.892 4.02965 264.151 4.51655 265.393L4.88592 266.333L7.15252 270.783L8.21027 272.462L9.26801 274.124L9.80528 274.947L10.4097 275.719C11.2156 276.76 12.0047 277.784 12.8106 278.808C14.5903 280.689 16.2861 282.636 18.2672 284.231L19.6944 285.49C20.1645 285.91 20.7017 286.246 21.2054 286.615C22.2296 287.337 23.2202 288.11 24.2611 288.781C25.3357 289.402 26.4102 290.024 27.4679 290.645L28.2571 291.115C28.5257 291.249 28.8111 291.367 29.0797 291.501C29.6338 291.753 30.1879 292.005 30.7419 292.257C32.9078 293.365 35.2247 294.02 37.4578 294.809C38.5994 295.144 39.7411 295.363 40.8828 295.648C41.4537 295.782 42.0245 295.917 42.5786 296.051C43.1494 296.169 43.7203 296.219 44.2911 296.303C45.4328 296.454 46.5577 296.605 47.6826 296.739C48.8075 296.84 49.9324 296.823 51.0573 296.874C53.2904 297.042 55.473 296.756 57.6389 296.622L58.4448 296.572C58.7134 296.538 58.982 296.488 59.2339 296.437C59.7544 296.353 60.2916 296.253 60.8121 296.169C61.8531 295.967 62.894 295.833 63.9182 295.598C64.9256 295.312 65.9161 295.044 66.9067 294.758C67.3936 294.624 67.8973 294.49 68.3842 294.355C68.8543 294.171 69.3244 294.003 69.7945 293.818C70.7348 293.449 71.6582 293.096 72.5648 292.744C73.0349 292.576 73.4715 292.357 73.8912 292.139C74.3277 291.921 74.7643 291.703 75.184 291.484C76.0403 291.048 76.8965 290.645 77.7192 290.191C78.5083 289.688 79.2975 289.201 80.0698 288.697C86.2651 284.718 90.9662 279.849 94.3242 275.081C94.7439 274.493 95.1804 273.906 95.5834 273.335C95.936 272.73 96.2885 272.126 96.6243 271.538C96.9601 270.951 97.2959 270.38 97.6317 269.809C97.7996 269.524 97.9675 269.255 98.1186 268.969C98.2529 268.684 98.3872 268.399 98.5216 268.113C99.042 266.971 99.5457 265.897 100.016 264.856C100.469 263.815 100.771 262.757 101.124 261.8C101.292 261.313 101.46 260.843 101.611 260.39C101.779 259.937 101.93 259.483 102.014 259.03C102.232 258.14 102.417 257.317 102.601 256.545C102.769 255.773 102.971 255.068 103.088 254.413C103.172 253.758 103.256 253.154 103.34 252.616C103.491 251.559 103.609 250.736 103.676 250.165C103.76 249.611 103.81 249.326 103.81 249.326C103.81 249.326 103.793 249.611 103.726 250.165C103.659 250.736 103.558 251.542 103.441 252.616C103.374 253.154 103.307 253.758 103.223 254.43C103.105 255.084 102.92 255.806 102.753 256.579C102.568 257.351 102.383 258.191 102.182 259.08C102.098 259.534 101.963 259.987 101.796 260.44C101.644 260.894 101.477 261.381 101.309 261.867C100.956 262.841 100.671 263.899 100.217 264.957C99.7472 265.998 99.2435 267.089 98.723 268.247C98.5887 268.533 98.4544 268.818 98.3369 269.121C98.2025 269.406 98.0179 269.675 97.8668 269.977C97.531 270.548 97.212 271.119 96.8594 271.706C96.5236 272.294 96.171 272.898 95.8184 273.519C95.4155 274.107 94.9957 274.678 94.5592 275.282C91.2013 280.084 86.5002 285.004 80.2713 289.033C79.4989 289.537 78.693 290.024 77.9039 290.544C77.0812 290.997 76.2082 291.417 75.3519 291.854C74.9154 292.072 74.4788 292.29 74.0423 292.508C73.6058 292.727 73.1693 292.962 72.6991 293.13C71.7757 293.482 70.8523 293.852 69.9121 294.221C69.442 294.406 68.9718 294.59 68.4849 294.775C67.9981 294.909 67.4944 295.044 67.0075 295.195C66.0169 295.48 65.0095 295.749 64.0021 296.034C62.978 296.286 61.937 296.42 60.8793 296.622C60.3588 296.723 59.8215 296.807 59.301 296.907C59.0324 296.958 58.7638 297.008 58.4951 297.042L57.6892 297.109C55.5234 297.243 53.3071 297.529 51.0573 297.377C49.9324 297.327 48.7907 297.361 47.6658 297.243C46.5409 297.092 45.3992 296.958 44.2408 296.807C43.6699 296.723 43.0823 296.689 42.5114 296.555C41.9406 296.42 41.3697 296.286 40.7989 296.152C39.6572 295.866 38.4987 295.648 37.3402 295.312C35.0904 294.506 32.7567 293.868 30.574 292.744C30.02 292.492 29.4659 292.24 28.8951 291.971C28.6096 291.837 28.3242 291.719 28.0556 291.585L27.2497 291.115C26.1751 290.494 25.1006 289.872 24.0093 289.234C22.9515 288.563 21.961 287.774 20.92 287.052C20.4163 286.666 19.8623 286.33 19.3921 285.91L17.9482 284.651C15.9503 283.039 14.2377 281.075 12.4412 279.178C11.6353 278.137 10.8294 277.112 10.0235 276.071L9.41912 275.282L7.80732 272.764L6.73278 271.068L4.9195 267.475L4.46619 266.569L4.09681 265.628C3.60992 264.369 3.10623 263.093 2.61933 261.817C2.24996 260.507 1.88059 259.181 1.51121 257.855C0.218415 252.499 -0.251694 246.891 0.117677 241.25C0.638155 235.625 1.98132 230.152 4.08002 225.065C4.65087 223.822 5.22172 222.563 5.79256 221.321C6.48094 220.145 7.16931 218.97 7.8409 217.795C8.00879 217.509 8.17669 217.207 8.36137 216.922L10.1243 214.454L11.2996 212.825L13.9355 209.82C14.1538 209.568 14.3721 209.316 14.5903 209.081L15.3123 208.409C16.2693 207.503 17.2263 206.613 18.1833 205.706C20.2484 204.111 22.2464 202.449 24.4794 201.156L26.108 200.132C26.6453 199.796 27.2329 199.544 27.7869 199.242C28.9286 198.688 30.0368 198.067 31.1784 197.563C32.3537 197.11 33.5122 196.657 34.6707 196.203L35.5437 195.868C35.8292 195.767 36.1314 195.7 36.4336 195.616C37.0212 195.448 37.6257 195.28 38.2133 195.112C40.547 194.356 42.9647 194.071 45.2985 193.634C46.4738 193.483 47.6658 193.45 48.8411 193.349C49.4287 193.299 50.0164 193.265 50.5872 193.215C51.1749 193.181 51.7457 193.232 52.3333 193.248C53.4918 193.282 54.6503 193.315 55.792 193.349C56.9337 193.416 58.0418 193.618 59.1667 193.752C61.4165 193.954 63.5488 194.558 65.6643 195.045L66.4534 195.23C66.722 195.297 66.9739 195.397 67.2257 195.481C67.7294 195.649 68.2499 195.834 68.7536 196.002C69.761 196.371 70.7851 196.657 71.7421 197.06C72.6991 197.496 73.6394 197.933 74.5796 198.352C75.0497 198.571 75.5198 198.789 75.9731 198.99C76.4264 199.242 76.8462 199.494 77.2995 199.746C78.1726 200.25 79.0288 200.753 79.8851 201.257C80.3216 201.492 80.7246 201.777 81.1107 202.063C81.5137 202.348 81.8998 202.634 82.3028 202.919C83.0751 203.49 83.881 204.027 84.6198 204.615C85.3249 205.236 86.0301 205.857 86.7353 206.462C92.259 211.398 96.1374 216.989 98.723 222.261C101.275 227.549 102.753 232.452 103.307 236.532C103.391 237.036 103.474 237.539 103.558 238.009C103.659 238.496 103.726 238.95 103.743 239.42C103.81 240.326 103.861 241.183 103.928 241.972C103.978 242.761 104.045 243.5 104.062 244.171C104.045 244.843 104.012 245.447 103.995 245.984C103.961 247.059 103.928 247.882 103.911 248.453C103.894 249.007 103.861 249.292 103.861 249.292L103.827 249.275Z" fill="#263238"/>
<path d="M676.017 0.43653H329.395V526.606H676.017V0.43653Z" fill="white"/>
<path d="M675.396 27.2327H328.673V253.674H675.396V27.2327Z" fill="#F5F5F5"/>
<path d="M639.326 328.875C639.326 329.11 579.925 329.311 506.672 329.311C433.418 329.311 374 329.11 374 328.875C374 328.64 433.385 328.438 506.672 328.438C579.958 328.438 639.326 328.64 639.326 328.875Z" fill="black"/>
<path d="M583.12 343.045C583.12 343.28 549.071 343.482 507.097 343.482C465.123 343.482 431.056 343.28 431.056 343.045C431.056 342.81 465.089 342.609 507.097 342.609C549.104 342.609 583.12 342.81 583.12 343.045Z" fill="black"/>
<path d="M559.128 163.245C575.447 148.017 576.337 122.43 561.109 106.11C545.881 89.7908 520.293 88.901 503.974 104.129C490.005 117.158 487.352 137.742 496.402 153.658L488.175 161.331L490.139 174.981L477.379 171.405L467.087 181.009L469.051 194.659L456.291 191.082L447.443 199.343L448.635 207.671L440.862 205.488L435.707 210.29L434.935 222.932L453.79 227.684L514.988 170.599C529.376 177.046 546.854 174.713 559.128 163.262V163.245ZM553.15 113.531C557.516 118.216 557.264 125.553 552.58 129.918C547.895 134.283 540.558 134.031 536.193 129.347C531.828 124.663 532.079 117.326 536.764 112.96C541.448 108.595 548.785 108.847 553.15 113.531Z" fill="#263238"/>
<path d="M553.15 113.548C553.15 113.548 552.395 112.843 550.85 111.886C549.339 110.962 546.754 109.922 543.547 110.291C540.407 110.593 536.663 112.608 534.766 116.402C532.818 120.096 533.188 125.469 536.562 129.028C539.87 132.638 545.226 133.393 549.037 131.698C552.949 130.069 555.232 126.476 555.736 123.353C556.324 120.18 555.467 117.544 554.645 115.966C553.805 114.354 553.066 113.615 553.15 113.548C553.184 113.531 553.369 113.699 553.704 114.052C554.057 114.404 554.51 114.975 554.98 115.781C555.937 117.359 556.962 120.096 556.441 123.488C555.988 126.812 553.621 130.741 549.39 132.554C547.324 133.461 544.856 133.813 542.422 133.343C539.987 132.923 537.62 131.63 535.824 129.733C534.044 127.802 532.936 125.351 532.684 122.9C532.382 120.449 532.902 117.997 533.943 115.999C536.042 111.903 540.122 109.821 543.48 109.603C546.905 109.317 549.557 110.526 551.068 111.584C551.841 112.121 552.378 112.608 552.697 112.977C553.033 113.347 553.184 113.548 553.15 113.565V113.548Z" fill="#263238"/>
<path d="M559.128 163.245C559.128 163.245 558.943 163.447 558.54 163.799C558.12 164.186 557.533 164.706 556.76 165.394C555.098 166.67 552.613 168.601 548.936 170.364C545.276 172.11 540.441 173.739 534.564 174.226C528.722 174.662 521.804 173.924 514.853 170.851L515.189 170.801C499.424 185.575 478.437 205.219 454.109 228.003L453.924 228.171L453.689 228.104C447.762 226.626 441.365 225.014 434.834 223.369L434.448 223.268V222.882C434.717 218.936 434.968 214.621 435.237 210.239V210.055L435.388 209.92C436.983 208.426 438.746 206.781 440.526 205.119L440.727 204.934L440.996 205.001C443.414 205.673 446.083 206.428 448.769 207.184L448.148 207.721C447.779 205.119 447.359 202.264 446.939 199.393L446.906 199.141L447.091 198.957C449.878 196.354 452.883 193.551 455.939 190.696L456.14 190.512L456.409 190.596C460.438 191.72 464.787 192.946 469.169 194.172L468.531 194.726C467.91 190.394 467.238 185.76 466.566 181.076L466.533 180.807L466.718 180.623C467.574 179.817 468.514 178.944 469.437 178.071C471.973 175.703 474.491 173.353 476.993 171.019L477.194 170.817L477.463 170.901C481.761 172.11 486.009 173.302 490.223 174.478L489.585 175.032C488.93 170.431 488.275 165.881 487.621 161.382L487.587 161.13L487.772 160.945C490.542 158.36 493.279 155.808 495.999 153.272L495.915 153.877C492.725 148.151 490.895 141.805 490.66 135.475C490.525 132.319 490.71 129.162 491.331 126.123C491.852 123.068 492.842 120.13 494.017 117.326C498.87 106.093 508.658 98.0177 519.151 94.7605C529.712 91.4194 540.777 92.7458 549.406 97.0439C558.171 101.275 564.399 108.394 568.009 115.63C571.552 122.984 572.576 130.489 571.988 136.852C571.468 143.232 569.554 148.504 567.455 152.416C567.203 152.903 566.951 153.39 566.7 153.86C566.414 154.296 566.129 154.733 565.877 155.136C565.323 155.959 564.87 156.765 564.349 157.436C563.258 158.746 562.418 159.938 561.596 160.76C560.79 161.566 560.168 162.188 559.732 162.624C559.312 163.044 559.077 163.229 559.077 163.229C559.077 163.229 559.262 162.993 559.665 162.557C560.101 162.104 560.689 161.466 561.461 160.643C562.267 159.803 563.073 158.611 564.131 157.285C564.634 156.613 565.088 155.808 565.625 154.985C565.894 154.565 566.162 154.145 566.431 153.709C566.666 153.239 566.901 152.769 567.153 152.265C569.184 148.353 571.031 143.131 571.501 136.818C572.039 130.539 570.964 123.135 567.455 115.915C563.845 108.813 557.717 101.846 549.087 97.7323C540.592 93.5517 529.746 92.2757 519.42 95.5832C509.162 98.79 499.608 106.732 494.891 117.695C493.732 120.432 492.775 123.303 492.271 126.291C491.684 129.263 491.499 132.352 491.633 135.425C491.868 141.604 493.665 147.799 496.788 153.39L496.972 153.726L496.687 153.994C493.967 156.529 491.23 159.081 488.46 161.667L488.611 161.231C489.266 165.73 489.921 170.28 490.576 174.881L490.693 175.636L489.954 175.435C485.74 174.259 481.476 173.067 477.194 171.858L477.681 171.741C475.18 174.075 472.661 176.425 470.126 178.792C469.186 179.666 468.262 180.539 467.406 181.344L467.557 180.908C468.229 185.592 468.9 190.226 469.521 194.558L469.639 195.33L468.9 195.129C464.518 193.903 460.17 192.677 456.14 191.553L456.61 191.435C453.571 194.272 450.549 197.093 447.762 199.679L447.913 199.242C448.333 202.113 448.736 204.967 449.105 207.57L449.206 208.325L448.484 208.124C445.798 207.368 443.128 206.613 440.71 205.941L441.181 205.824C439.401 207.486 437.621 209.131 436.026 210.626L436.177 210.307C435.909 214.689 435.64 219.004 435.405 222.949L435.052 222.462C441.6 224.108 447.997 225.736 453.907 227.23L453.487 227.331C477.899 204.632 498.954 185.072 514.786 170.347L514.937 170.213L515.122 170.297C521.939 173.353 528.755 174.142 534.548 173.756C540.357 173.319 545.159 171.758 548.802 170.079C552.462 168.366 554.964 166.503 556.659 165.277C557.449 164.622 558.053 164.118 558.49 163.766C558.909 163.43 559.128 163.262 559.128 163.262V163.245Z" fill="#263238"/>
<path d="M557.784 158.662C574.104 143.434 574.994 117.846 559.766 101.527C544.537 85.2072 518.95 84.3174 502.63 99.5456C488.662 112.574 486.009 133.158 495.058 149.075L486.848 156.748L488.813 170.398L476.053 166.821L465.761 176.425L467.725 190.075L454.965 186.499L446.117 194.759L447.309 203.087L439.535 200.904L434.381 205.706L433.608 218.349L452.463 223.1L513.661 166.016C528.05 172.463 545.528 170.129 557.801 158.679L557.784 158.662ZM551.807 108.948C556.173 113.632 555.921 120.969 551.236 125.334C546.552 129.7 539.215 129.448 534.85 124.764C530.484 120.079 530.736 112.742 535.421 108.377C540.105 104.012 547.442 104.263 551.807 108.948Z" fill="#0C69B0"/>
<path d="M551.807 108.948C551.807 108.948 551.052 108.243 549.507 107.286C547.996 106.362 545.41 105.321 542.204 105.691C539.064 105.993 535.32 108.008 533.423 111.802C531.475 115.479 531.844 120.868 535.219 124.428C538.527 128.038 543.883 128.793 547.694 127.097C551.606 125.469 553.889 121.876 554.393 118.753C554.981 115.58 554.124 112.944 553.302 111.365C552.462 109.754 551.723 109.015 551.807 108.948C551.841 108.931 552.025 109.099 552.361 109.451C552.714 109.804 553.167 110.375 553.637 111.181C554.594 112.759 555.618 115.496 555.098 118.887C554.645 122.212 552.277 126.14 548.046 127.954C545.981 128.86 543.513 129.213 541.079 128.743C538.644 128.323 536.277 127.03 534.48 125.133C532.701 123.202 531.593 120.751 531.341 118.3C531.038 115.848 531.559 113.397 532.6 111.399C534.699 107.302 538.778 105.22 542.136 105.002C545.561 104.717 548.214 105.926 549.725 106.983C550.498 107.521 551.035 108.008 551.354 108.377C551.69 108.746 551.841 108.948 551.807 108.965V108.948Z" fill="#263238"/>
<path d="M557.784 158.662C557.784 158.662 557.6 158.863 557.197 159.216C556.777 159.602 556.189 160.122 555.417 160.811C553.755 162.087 551.27 164.018 547.593 165.781C543.933 167.527 539.098 169.155 533.221 169.642C527.378 170.079 520.461 169.34 513.51 166.267L513.846 166.217C498.081 180.992 477.094 200.636 452.765 223.419L452.581 223.587L452.346 223.52C446.419 222.043 440.022 220.431 433.491 218.785L433.105 218.685V218.298C433.373 214.353 433.625 210.038 433.894 205.656V205.471L434.045 205.337C435.64 203.843 437.403 202.197 439.183 200.535L439.384 200.35L439.653 200.417C442.07 201.089 444.74 201.845 447.426 202.6L446.805 203.137C446.436 200.535 446.016 197.681 445.596 194.81L445.563 194.558L445.747 194.373C448.534 191.771 451.54 188.967 454.595 186.113L454.797 185.928L455.066 186.012C459.095 187.137 463.444 188.363 467.826 189.588L467.188 190.142C466.566 185.811 465.895 181.177 465.223 176.492L465.19 176.224L465.374 176.039C466.231 175.233 467.171 174.36 468.094 173.487C470.63 171.12 473.148 168.769 475.65 166.435L475.851 166.234L476.12 166.318C480.418 167.527 484.666 168.719 488.88 169.894L488.242 170.448C487.587 165.848 486.932 161.298 486.277 156.798L486.244 156.546L486.429 156.362C489.199 153.776 491.936 151.224 494.655 148.689L494.572 149.293C491.382 143.568 489.551 137.221 489.316 130.892C489.182 127.735 489.367 124.579 489.988 121.54C490.508 118.484 491.499 115.546 492.674 112.742C497.526 101.51 507.315 93.4341 517.808 90.177C528.369 86.8358 539.433 88.1622 548.063 92.4603C556.827 96.6913 563.056 103.81 566.666 111.046C570.209 118.4 571.233 125.905 570.645 132.268C570.125 138.665 568.211 143.92 566.112 147.832C565.86 148.319 565.608 148.806 565.357 149.276C565.071 149.713 564.802 150.149 564.534 150.552C563.98 151.375 563.526 152.181 563.006 152.853C561.915 154.162 561.075 155.354 560.252 156.177C559.447 156.983 558.825 157.604 558.389 158.041C557.969 158.46 557.734 158.645 557.734 158.645C557.734 158.645 557.919 158.41 558.322 157.973C558.758 157.52 559.346 156.882 560.118 156.059C560.924 155.22 561.73 154.028 562.788 152.701C563.291 152.03 563.745 151.224 564.282 150.401C564.551 149.982 564.819 149.562 565.088 149.125C565.323 148.655 565.558 148.185 565.81 147.681C567.841 143.769 569.688 138.548 570.158 132.235C570.696 125.956 569.621 118.551 566.112 111.349C562.502 104.247 556.374 97.279 547.744 93.1655C539.249 88.9849 528.403 87.7089 518.077 91.0164C507.819 94.2232 498.265 102.165 493.547 113.128C492.389 115.865 491.432 118.736 490.928 121.725C490.341 124.696 490.156 127.786 490.29 130.858C490.525 137.037 492.322 143.232 495.445 148.823L495.629 149.159L495.344 149.427C492.624 151.963 489.887 154.515 487.117 157.1L487.268 156.664C487.923 161.163 488.578 165.713 489.232 170.314L489.35 171.069L488.611 170.868C484.397 169.693 480.132 168.5 475.851 167.292L476.338 167.174C473.836 169.508 471.318 171.858 468.783 174.226C467.842 175.099 466.919 175.972 466.063 176.778L466.214 176.341C466.885 181.026 467.557 185.659 468.178 189.991L468.296 190.763L467.557 190.562C463.175 189.336 458.826 188.111 454.797 186.986L455.267 186.868C452.228 189.706 449.206 192.526 446.419 195.112L446.57 194.675C446.99 197.546 447.393 200.401 447.762 203.003L447.863 203.759L447.141 203.557C444.455 202.802 441.785 202.046 439.367 201.374L439.837 201.257C438.058 202.919 436.278 204.565 434.683 206.059L434.834 205.74C434.565 210.122 434.297 214.437 434.062 218.382L433.709 217.895C440.257 219.541 446.654 221.169 452.564 222.664L452.144 222.764C476.556 200.065 497.61 180.505 513.443 165.781L513.594 165.646L513.779 165.73C520.595 168.786 527.412 169.575 533.204 169.189C539.014 168.752 543.815 167.191 547.459 165.512C551.119 163.799 553.621 161.936 555.316 160.71C556.105 160.055 556.71 159.552 557.146 159.199C557.566 158.863 557.784 158.695 557.784 158.695V158.662Z" fill="#263238"/>
<path d="M554.074 155.505C553.94 155.388 556.441 153.39 559.497 148.655C561.058 146.321 562.536 143.165 563.661 139.354C564.752 135.526 565.34 130.959 564.819 125.972C564.282 121.019 562.704 115.613 559.497 110.677C556.29 105.791 551.707 101.157 545.763 98.2528C542.842 96.7081 539.601 95.6336 536.21 95.0292C534.514 94.6598 532.768 94.5758 531.022 94.4247C529.259 94.4583 527.479 94.4247 525.699 94.6934C518.547 95.4489 511.495 98.7061 505.888 103.844C500.364 109.082 496.62 115.899 495.377 122.984C494.991 124.747 494.891 126.526 494.739 128.273C494.773 130.035 494.723 131.782 494.974 133.494C495.344 136.919 496.2 140.244 497.526 143.249C500.028 149.377 504.326 154.263 508.977 157.805C513.678 161.348 518.967 163.296 523.869 164.186C528.805 165.059 533.406 164.79 537.301 163.967C541.179 163.111 544.437 161.869 546.871 160.458C551.807 157.738 553.973 155.371 554.074 155.522C554.074 155.522 553.956 155.673 553.671 155.925C553.352 156.21 552.932 156.597 552.412 157.05C551.858 157.554 551.152 158.158 550.246 158.762C549.356 159.4 548.332 160.156 547.073 160.794C544.638 162.255 541.364 163.581 537.435 164.505C533.49 165.394 528.805 165.73 523.769 164.874C518.749 164.018 513.342 162.07 508.49 158.46C503.705 154.867 499.273 149.881 496.687 143.585C495.31 140.495 494.42 137.087 494.034 133.578C493.766 131.815 493.816 130.019 493.782 128.205C493.934 126.409 494.017 124.579 494.42 122.766C495.696 115.496 499.541 108.461 505.216 103.071C510.992 97.7826 518.262 94.4415 525.599 93.6692C527.429 93.4006 529.259 93.4341 531.072 93.4174C532.869 93.5685 534.665 93.6524 536.411 94.0386C539.903 94.6766 543.228 95.8015 546.216 97.3797C552.311 100.402 556.978 105.17 560.236 110.19C563.493 115.261 565.071 120.818 565.575 125.872C566.062 130.959 565.407 135.61 564.248 139.488C563.056 143.35 561.512 146.523 559.883 148.857C559.144 150.082 558.322 151.039 557.633 151.879C556.962 152.752 556.324 153.407 555.786 153.927C555.283 154.414 554.88 154.8 554.578 155.119C554.292 155.388 554.158 155.505 554.141 155.489L554.074 155.505Z" fill="#263238"/>
<path d="M552.428 126.829C552.428 126.829 553.268 125.956 554.393 124.142C555.501 122.363 556.727 119.341 556.307 115.563C556.089 113.699 555.484 111.684 554.275 109.838C553.066 108.008 551.337 106.295 549.121 105.204C546.938 104.079 544.286 103.541 541.616 103.894C538.946 104.179 536.31 105.405 534.229 107.319C532.163 109.284 530.77 111.819 530.3 114.455C529.779 117.091 530.132 119.777 531.089 122.027C532.012 124.327 533.624 126.157 535.353 127.5C537.116 128.843 539.081 129.582 540.928 129.935C544.672 130.606 547.761 129.599 549.625 128.625C551.505 127.618 552.361 126.762 552.428 126.845C552.445 126.879 552.244 127.081 551.824 127.483C551.421 127.886 550.75 128.424 549.809 128.978C547.962 130.086 544.772 131.261 540.81 130.657C538.862 130.338 536.747 129.599 534.867 128.205C533.003 126.812 531.257 124.881 530.249 122.43C529.192 120.012 528.789 117.141 529.343 114.304C529.83 111.466 531.341 108.713 533.557 106.614C535.807 104.549 538.661 103.239 541.515 102.954C544.369 102.601 547.224 103.206 549.557 104.415C551.925 105.607 553.738 107.47 554.997 109.418C556.257 111.399 556.861 113.565 557.029 115.529C557.365 119.525 555.971 122.631 554.745 124.394C554.124 125.301 553.553 125.922 553.117 126.308C552.697 126.694 552.462 126.879 552.445 126.862L552.428 126.829Z" fill="#263238"/>
<path d="M447.51 220.834C447.326 220.632 461.093 207.469 478.286 191.435C495.478 175.401 509.565 162.574 509.749 162.775C509.934 162.977 496.166 176.14 478.974 192.174C461.798 208.208 447.695 221.035 447.51 220.834Z" fill="#263238"/>
<path d="M455.116 140.714L455.67 139.471L456.426 140.613C457.03 141.536 457.869 142.258 458.877 142.695L460.119 143.249L458.978 144.004C458.054 144.609 457.332 145.448 456.896 146.456L456.342 147.698L455.586 146.556C454.982 145.633 454.142 144.911 453.135 144.475L451.892 143.92L453.034 143.165C453.957 142.561 454.679 141.721 455.116 140.714Z" fill="#0C69B0"/>
<path d="M417.642 131.379L417.961 130.657L418.397 131.328C418.75 131.866 419.237 132.285 419.824 132.537L420.546 132.856L419.875 133.293C419.337 133.645 418.918 134.132 418.666 134.72L418.347 135.442L417.91 134.77C417.558 134.233 417.071 133.813 416.483 133.561L415.761 133.242L416.433 132.806C416.97 132.453 417.39 131.966 417.642 131.379Z" fill="#0C69B0"/>
<path d="M535.622 195.246L535.941 194.524L536.378 195.196C536.73 195.733 537.217 196.153 537.805 196.405L538.527 196.724L537.855 197.16C537.318 197.513 536.898 198 536.646 198.587L536.327 199.309L535.891 198.638C535.538 198.101 535.051 197.681 534.464 197.429L533.742 197.11L534.413 196.673C534.95 196.321 535.37 195.834 535.622 195.246Z" fill="#0C69B0"/>
<path d="M593.395 162.49L593.949 161.247L594.705 162.389C595.309 163.312 596.149 164.034 597.156 164.471L598.398 165.025L597.257 165.781C596.333 166.385 595.611 167.224 595.175 168.232L594.621 169.474L593.865 168.333C593.261 167.409 592.421 166.687 591.414 166.251L590.172 165.697L591.313 164.941C592.237 164.337 592.959 163.497 593.395 162.49Z" fill="#0C69B0"/>
<path d="M585.873 116.621L586.814 114.522L588.073 116.436C589.08 117.981 590.507 119.189 592.186 119.945L594.285 120.885L592.371 122.144C590.826 123.152 589.617 124.579 588.862 126.258L587.922 128.357L586.662 126.442C585.655 124.898 584.228 123.689 582.549 122.933L580.45 121.993L582.364 120.734C583.909 119.727 585.118 118.3 585.873 116.621Z" fill="#0C69B0"/>
<path d="M443.464 102.484L444.404 100.385L445.663 102.299C446.671 103.844 448.098 105.053 449.777 105.808L451.876 106.748L449.962 108.008C448.417 109.015 447.208 110.442 446.453 112.121L445.512 114.22L444.253 112.306C443.246 110.761 441.819 109.552 440.14 108.797L438.041 107.856L439.955 106.597C441.5 105.59 442.708 104.163 443.464 102.484Z" fill="#0C69B0"/>
<path d="M621.719 422.175C621.719 422.175 622.256 422.124 623.297 422.057C623.818 422.057 624.473 421.973 625.228 421.822C625.614 421.755 626.017 421.688 626.471 421.621C626.907 421.503 627.377 421.385 627.864 421.268C629.829 420.747 632.229 419.858 634.714 418.195C637.182 416.567 639.818 414.233 641.867 410.942C642.924 409.331 643.781 407.45 644.452 405.435C645.04 403.387 645.56 401.171 645.56 398.82C645.628 397.662 645.611 396.436 645.56 395.21C645.527 394.606 645.493 393.985 645.46 393.364C645.359 392.742 645.275 392.121 645.174 391.5C644.704 388.998 643.831 386.48 642.488 384.096C639.852 379.328 635.168 375.18 629.291 373.216C626.353 372.192 623.163 371.907 619.856 371.974C616.548 371.974 613.156 371.974 609.681 371.974C554.057 372.007 477.261 372.058 392.44 372.108C387.236 372.158 382.048 373.821 378.018 377.044C375.987 378.622 374.207 380.503 372.78 382.618C371.369 384.751 370.312 387.101 369.64 389.536C369.271 390.761 369.103 392.004 368.918 393.263C368.851 394.522 368.75 395.781 368.784 397.057C368.784 399.609 368.952 402.111 369.69 404.512C370.379 406.913 371.437 409.196 372.796 411.261C374.207 413.31 375.903 415.123 377.817 416.651C379.731 418.212 381.913 419.371 384.18 420.227C385.305 420.697 386.497 420.949 387.672 421.251C388.864 421.419 390.056 421.671 391.265 421.671C396.134 421.788 401.02 421.704 405.822 421.738C415.442 421.738 424.861 421.738 434.045 421.738C470.797 421.772 503.907 421.805 531.71 421.839C559.497 421.889 581.978 421.94 597.559 421.973C605.316 422.007 611.343 422.04 615.457 422.057C617.488 422.074 619.033 422.091 620.107 422.107C621.148 422.107 621.686 422.158 621.686 422.158C621.686 422.158 621.148 422.191 620.107 422.208C619.033 422.208 617.488 422.225 615.457 422.259C611.343 422.275 605.316 422.309 597.559 422.342C581.995 422.376 559.497 422.426 531.71 422.477C503.907 422.51 470.797 422.527 434.045 422.578C424.861 422.578 415.442 422.578 405.822 422.578C401.003 422.561 396.168 422.645 391.215 422.527C389.955 422.527 388.73 422.275 387.487 422.091C386.279 421.772 385.036 421.503 383.878 421.033C381.527 420.143 379.261 418.951 377.279 417.339C375.281 415.761 373.518 413.881 372.075 411.748C370.647 409.599 369.573 407.232 368.851 404.747C368.079 402.279 367.911 399.626 367.911 397.057C367.894 395.781 367.978 394.472 368.045 393.162C368.23 391.869 368.414 390.56 368.784 389.301C369.489 386.765 370.563 384.331 372.041 382.131C373.535 379.949 375.365 377.984 377.481 376.356C381.678 373.031 387.051 371.302 392.44 371.252C477.261 371.302 554.074 371.352 609.681 371.386C613.156 371.386 616.548 371.386 619.856 371.386C623.146 371.319 626.471 371.621 629.459 372.679C635.47 374.71 640.221 378.958 642.908 383.844C644.268 386.278 645.141 388.864 645.611 391.399C645.712 392.037 645.796 392.675 645.896 393.296C645.93 393.934 645.963 394.556 645.98 395.177C646.014 396.419 646.03 397.611 645.963 398.803C645.963 401.204 645.409 403.437 644.805 405.519C644.1 407.568 643.227 409.465 642.135 411.093C640.037 414.418 637.35 416.752 634.832 418.38C632.297 420.026 629.879 420.899 627.881 421.402C627.377 421.52 626.924 421.654 626.471 421.738C626.017 421.805 625.614 421.856 625.228 421.923C624.456 422.057 623.801 422.107 623.281 422.107C622.223 422.141 621.686 422.141 621.686 422.141L621.719 422.175Z" fill="#263238"/>
<path d="M617.372 433H388.093C374.787 433 364 443.787 364 457.093V459.393C364 472.7 374.787 483.486 388.093 483.486H617.372C630.678 483.486 641.465 472.7 641.465 459.393V457.093C641.465 443.787 630.678 433 617.372 433Z" fill="#0C69B0"/>
<path d="M424.055 406.997C424.055 406.997 424.005 406.46 423.971 405.503C423.954 404.462 423.921 403.102 423.887 401.423C423.837 397.83 423.787 392.86 423.703 386.866L424.055 387.219C415.728 387.235 405.335 387.269 394.052 387.303C393.951 387.403 394.875 386.48 394.489 386.866V389.536C394.489 390.425 394.489 391.299 394.489 392.172C394.489 393.918 394.489 395.63 394.489 397.326C394.489 400.701 394.472 403.941 394.455 407.014L394.052 406.611C402.766 406.695 410.187 406.762 415.56 406.812C418.145 406.862 420.227 406.896 421.772 406.913C422.443 406.93 422.997 406.946 423.451 406.963C423.837 406.963 424.038 406.997 424.055 407.014C424.089 407.047 423.35 407.081 421.94 407.114C420.412 407.148 418.364 407.181 415.811 407.215C410.372 407.265 402.867 407.333 394.052 407.417H393.649V407.014C393.649 403.941 393.632 400.701 393.616 397.326C393.616 395.647 393.616 393.918 393.616 392.172C393.616 391.299 393.616 390.425 393.616 389.536V386.866C393.229 387.252 394.153 386.329 394.052 386.413C405.318 386.446 415.728 386.48 424.055 386.497H424.408V386.849C424.324 392.944 424.273 397.981 424.223 401.624C424.189 403.269 424.156 404.613 424.139 405.637C424.106 406.543 424.089 407.014 424.055 406.98V406.997Z" fill="#263238"/>
<path d="M424.055 386.866C424.139 386.95 422.527 388.495 419.858 390.912C417.188 393.33 413.478 396.604 409.331 400.197C408.189 400.197 409.012 400.197 408.76 400.197H408.743L408.693 400.13L408.39 399.878L408.004 399.542L407.249 398.887C406.745 398.451 406.258 398.014 405.771 397.595C404.797 396.738 403.874 395.932 402.967 395.143C401.238 393.599 399.66 392.188 398.266 390.946C395.597 388.528 394.002 387 394.069 386.916C394.153 386.832 395.899 388.192 398.669 390.493C400.113 391.701 401.725 393.061 403.505 394.556C404.411 395.328 405.368 396.134 406.342 396.973C406.829 397.393 407.333 397.83 407.836 398.266L408.592 398.921L408.978 399.257L409.28 399.509L409.331 399.559H409.347V399.593C409.096 399.593 409.918 399.593 408.777 399.593C412.924 396 416.701 392.793 419.472 390.509C422.242 388.226 423.988 386.849 424.072 386.933L424.055 386.866Z" fill="#263238"/>
<path d="M404.898 396.251C405.066 396.419 402.783 398.971 399.794 401.943C396.806 404.915 394.237 407.181 394.069 407.014C393.901 406.846 396.184 404.294 399.173 401.322C402.162 398.35 404.73 396.084 404.898 396.251Z" fill="#263238"/>
<path d="M424.055 406.997C423.87 407.165 421.47 404.747 418.666 401.591C415.879 398.451 413.746 395.765 413.931 395.613C414.116 395.446 416.517 397.863 419.32 401.02C422.108 404.159 424.24 406.846 424.055 406.997Z" fill="#263238"/>
<path d="M675.379 27.2327C675.379 27.4678 597.76 27.6693 502.026 27.6693C406.292 27.6693 328.657 27.4678 328.657 27.2327C328.657 26.9977 406.258 26.7962 502.026 26.7962C597.794 26.7962 675.379 26.9977 675.379 27.2327Z" fill="#263238"/>
<path d="M348.334 13.4653C348.334 15.799 346.437 17.6795 344.12 17.6795C341.803 17.6795 339.906 15.7822 339.906 13.4653C339.906 11.1483 341.803 9.25107 344.12 9.25107C346.437 9.25107 348.334 11.1483 348.334 13.4653Z" fill="#263238"/>
<path d="M360.456 13.4653C360.456 15.799 358.559 17.6795 356.242 17.6795C353.925 17.6795 352.028 15.7822 352.028 13.4653C352.028 11.1483 353.925 9.25107 356.242 9.25107C358.559 9.25107 360.456 11.1483 360.456 13.4653Z" fill="#263238"/>
<path d="M372.561 13.4653C372.561 15.799 370.664 17.6795 368.347 17.6795C366.03 17.6795 364.133 15.7822 364.133 13.4653C364.133 11.1483 366.03 9.25107 368.347 9.25107C370.664 9.25107 372.561 11.1483 372.561 13.4653Z" fill="#263238"/>
<path d="M676 526.606C676 523.013 675.832 310.121 675.597 0.43653L676 0.83948C569.873 0.83948 452.329 0.85627 328.808 0.873059H328.774L329.211 0.43653C329.177 198.99 329.144 382.047 329.127 526.606L328.774 526.253C540.541 526.472 673.163 526.606 676 526.606C673.163 526.606 540.541 526.74 328.774 526.958H328.422V526.606C328.405 382.047 328.371 198.99 328.338 0.43653V0H328.825C452.346 0 569.89 0.0167896 676.017 0.0335792H676.42V0.43653C676.185 310.121 676.017 523.013 676.017 526.606L676 526.606Z" fill="#263238"/>
<path d="M669.654 668.411C669.654 668.411 669.57 668.176 669.368 667.723C669.133 667.236 668.831 666.581 668.445 665.758C667.656 664.029 666.648 661.393 665.741 657.884C663.945 650.883 663.324 640.188 665.977 627.478C667.202 621.115 669.2 614.298 671.618 607.062C674.002 599.809 676.772 592.119 679.039 583.808C681.272 575.514 683.052 566.515 682.699 557.079C682.363 547.626 679.559 538.191 676.47 528.789C673.398 519.386 670.224 510.186 669.267 500.935C668.193 491.7 670.174 482.634 674.371 475.213C678.451 467.708 683.572 461.278 687.417 454.629C691.312 447.997 693.747 441.18 695.258 434.851C698.162 422.074 697.155 411.295 695.761 404.193C694.25 397.057 692.571 393.364 692.571 393.364C692.571 393.364 692.622 393.615 692.756 394.086C692.924 394.606 693.125 395.278 693.411 396.167C693.982 397.998 694.704 400.717 695.392 404.277C696.668 411.362 697.575 422.057 694.603 434.7C693.075 440.962 690.624 447.695 686.745 454.226C682.917 460.791 677.763 467.188 673.616 474.793C669.318 482.298 667.253 491.667 668.344 501.052C669.301 510.454 672.508 519.722 675.563 529.124C678.636 538.51 681.406 547.845 681.759 557.146C682.111 566.431 680.382 575.346 678.183 583.607C675.95 591.884 673.213 599.574 670.862 606.843C668.461 614.097 666.514 620.98 665.322 627.394C662.736 640.188 663.475 651 665.406 658.018C666.379 661.527 667.454 664.163 668.31 665.876C668.73 666.698 669.066 667.336 669.318 667.806C669.553 668.243 669.67 668.461 669.687 668.445L669.654 668.411Z" fill="#263238"/>
<path d="M682.212 461.177C682.212 461.177 690.002 436.261 676.034 421.671C675.547 421.15 674.674 421.402 674.556 422.091C673.817 426.204 672.877 438.729 682.229 461.16L682.212 461.177Z" fill="#0C69B0"/>
<path d="M677.545 429.982C677.41 430.015 677.629 431.761 678.065 434.582C678.569 437.755 679.173 441.466 679.845 445.563C680.5 449.676 681.087 453.386 681.591 456.543C682.011 459.364 682.279 461.11 682.414 461.093C682.548 461.093 682.531 459.313 682.279 456.459C682.027 453.605 681.524 449.693 680.819 445.395C680.113 441.096 679.358 437.218 678.753 434.431C678.149 431.644 677.679 429.931 677.545 429.965V429.982Z" fill="#263238"/>
<path d="M673.062 519.94C673.062 519.94 668.294 494.269 649.12 487.923C648.448 487.704 647.793 488.326 648.012 488.997C649.271 492.976 654.308 504.494 673.062 519.957V519.94Z" fill="#0C69B0"/>
<path d="M654.341 494.538C654.241 494.622 655.248 496.066 656.961 498.349C658.891 500.901 661.158 503.906 663.676 507.231C666.178 510.555 668.428 513.56 670.359 516.129C672.054 518.413 673.095 519.84 673.213 519.756C673.314 519.689 672.474 518.127 670.929 515.726C669.368 513.325 667.101 510.102 664.466 506.626C661.83 503.151 659.361 500.078 657.515 497.912C655.668 495.73 654.459 494.437 654.358 494.521L654.341 494.538Z" fill="#263238"/>
<path d="M678.233 584.329C678.233 584.329 681.121 558.389 664.633 546.737C664.046 546.334 663.257 546.737 663.257 547.442C663.307 551.622 664.784 564.097 678.233 584.329Z" fill="#0C69B0"/>
<path d="M667.706 554.594C667.588 554.645 668.126 556.323 669.099 559.01C670.208 562.015 671.5 565.558 672.944 569.453C674.371 573.365 675.647 576.891 676.755 579.913C677.713 582.599 678.3 584.261 678.434 584.211C678.552 584.177 678.199 582.448 677.41 579.695C676.621 576.941 675.379 573.197 673.868 569.117C672.357 565.037 670.879 561.377 669.754 558.758C668.629 556.139 667.84 554.544 667.723 554.594H667.706Z" fill="#263238"/>
<path d="M663.794 649.086C663.794 649.086 665.758 623.062 648.851 611.998C648.264 611.612 647.474 612.048 647.508 612.753C647.709 616.934 649.623 629.341 663.794 649.086Z" fill="#0C69B0"/>
<path d="M652.209 619.738C652.092 619.788 652.696 621.45 653.754 624.103C654.963 627.075 656.39 630.55 657.968 634.412C659.529 638.274 660.94 641.749 662.149 644.721C663.206 647.374 663.844 649.002 663.979 648.969C664.096 648.935 663.693 647.206 662.803 644.486C661.913 641.766 660.537 638.072 658.875 634.043C657.212 630.013 655.617 626.42 654.392 623.834C653.166 621.249 652.327 619.704 652.209 619.755V619.738Z" fill="#263238"/>
<path d="M693.411 439.283C693.411 439.283 716.547 427.195 717 406.997C717 406.292 716.228 405.855 715.657 406.258C712.215 408.642 702.695 416.836 693.411 439.283Z" fill="#0C69B0"/>
<path d="M712.198 413.948C712.081 413.881 711.006 415.274 709.311 417.557C707.43 420.16 705.231 423.199 702.779 426.573C700.328 429.931 698.112 432.97 696.231 435.573C694.536 437.856 693.495 439.283 693.595 439.367C693.696 439.451 694.939 438.192 696.769 435.992C698.599 433.793 701.016 430.67 703.568 427.144C706.121 423.618 708.32 420.344 709.865 417.944C711.409 415.543 712.282 414.015 712.182 413.931L712.198 413.948Z" fill="#263238"/>
<path d="M668.562 492.792C668.562 492.792 692.387 482.13 694.066 462C694.133 461.294 693.377 460.807 692.773 461.177C689.197 463.343 679.19 470.932 668.562 492.792Z" fill="#0C69B0"/>
<path d="M688.844 468.631C688.743 468.547 687.568 469.874 685.755 472.073C683.723 474.558 681.339 477.463 678.703 480.686C676.05 483.893 673.666 486.798 671.618 489.266C669.788 491.448 668.646 492.792 668.764 492.892C668.848 492.976 670.174 491.801 672.138 489.719C674.103 487.637 676.705 484.666 679.459 481.291C682.212 477.916 684.613 474.793 686.309 472.493C687.988 470.193 688.962 468.715 688.861 468.631H688.844Z" fill="#263238"/>
<path d="M682.279 552.479C682.279 552.479 698.632 532.146 690.96 513.46C690.691 512.805 689.801 512.721 689.432 513.309C687.232 516.868 681.776 528.184 682.279 552.479Z" fill="#0C69B0"/>
<path d="M689.331 521.72C689.197 521.703 688.76 523.416 688.139 526.186C687.45 529.326 686.661 533.003 685.772 537.066C684.882 541.129 684.059 544.806 683.371 547.929C682.733 550.699 682.346 552.428 682.481 552.462C682.598 552.495 683.236 550.85 684.042 548.097C684.848 545.36 685.805 541.532 686.729 537.267C687.652 533.003 688.357 529.141 688.81 526.32C689.264 523.5 689.465 521.737 689.331 521.72Z" fill="#263238"/>
<path d="M666.06 622.71C666.06 622.71 689.7 611.662 691.043 591.498C691.094 590.793 690.321 590.322 689.734 590.692C686.191 592.925 676.319 600.682 666.06 622.71Z" fill="#0C69B0"/>
<path d="M685.956 598.214C685.855 598.13 684.697 599.473 682.917 601.706C680.919 604.224 678.586 607.162 676 610.436C673.414 613.694 671.064 616.632 669.066 619.133C667.269 621.35 666.161 622.71 666.262 622.81C666.346 622.894 667.655 621.685 669.586 619.587C671.517 617.471 674.069 614.466 676.755 611.041C679.459 607.616 681.809 604.459 683.455 602.126C685.1 599.792 686.057 598.297 685.939 598.214H685.956Z" fill="#263238"/>
<path d="M618.966 520.075C618.966 520.075 618.932 520.276 618.932 520.646C618.932 521.099 618.949 521.653 618.966 522.308C619.033 523.869 619.134 526.001 619.251 528.637C619.553 534.195 619.973 541.968 620.494 551.236V551.287C622.189 560.739 626.991 571.199 633.455 581.374C638.19 588.862 643.16 595.662 647.441 602.008C651.756 608.321 655.399 614.164 657.934 619.352C660.486 624.523 661.981 628.972 662.837 632.078C663.257 633.64 663.559 634.848 663.744 635.688C663.945 636.511 664.063 636.947 664.096 636.947C664.13 636.947 664.079 636.494 663.945 635.654C663.828 634.815 663.576 633.572 663.206 631.994C662.451 628.838 661.04 624.321 658.556 619.066C656.071 613.794 652.478 607.868 648.196 601.521C643.949 595.141 638.996 588.324 634.278 580.87C627.847 570.763 623.062 560.454 621.316 551.152V551.203C620.678 541.935 620.124 534.178 619.738 528.621C619.52 525.985 619.352 523.869 619.234 522.308C619.167 521.653 619.117 521.099 619.066 520.646C619.016 520.276 618.982 520.075 618.966 520.075Z" fill="#263238"/>
<path d="M633.052 579.443C633.052 579.443 623.046 555.333 635.638 539.551C636.074 538.997 636.964 539.165 637.149 539.836C638.257 543.866 640.322 556.256 633.052 579.443Z" fill="#0C69B0"/>
<path d="M634.865 547.945C634.731 547.945 634.429 549.675 634.076 552.512C633.724 555.35 633.321 559.262 633.019 563.61C632.7 567.959 632.565 571.904 632.565 574.758C632.565 577.613 632.716 579.392 632.851 579.376C633.002 579.376 633.086 577.613 633.254 574.775C633.472 571.585 633.724 567.824 633.992 563.677C634.278 559.53 634.546 555.769 634.765 552.579C634.949 549.742 635 547.962 634.865 547.962V547.945Z" fill="#263238"/>
<path d="M664.063 637.535C664.063 637.535 656.037 612.703 669.872 597.979C670.359 597.458 671.232 597.693 671.349 598.398C672.138 602.512 673.179 615.02 664.063 637.535Z" fill="#0C69B0"/>
<path d="M668.428 606.289C668.294 606.273 667.857 607.968 667.269 610.772C666.682 613.559 665.977 617.438 665.305 621.753C664.633 626.051 664.18 629.98 663.945 632.834C663.727 635.688 663.727 637.451 663.844 637.468C663.979 637.468 664.23 635.738 664.633 632.918C665.103 629.744 665.658 626.034 666.279 621.921C666.9 617.807 667.471 614.08 667.958 610.923C668.361 608.103 668.579 606.34 668.445 606.323L668.428 606.289Z" fill="#263238"/>
<path d="M620.292 549.977C620.292 549.977 598.902 535.001 601.068 514.92C601.152 514.215 601.975 513.879 602.495 514.35C605.601 517.153 613.996 526.505 620.292 549.977Z" fill="#0C69B0"/>
<path d="M604.93 522.425C604.812 522.492 605.484 524.121 606.709 526.707C607.935 529.292 609.698 532.818 611.763 536.646C613.828 540.474 615.826 543.882 617.354 546.3C618.899 548.718 619.973 550.128 620.074 550.044C620.191 549.96 619.335 548.432 617.958 545.948C616.43 543.127 614.617 539.836 612.636 536.176C610.655 532.516 608.858 529.208 607.331 526.388C605.954 523.886 605.064 522.375 604.946 522.425H604.93Z" fill="#263238"/>
<path d="M655.433 612.904C655.433 612.904 629.644 608.875 622.727 589.903C622.491 589.231 623.079 588.576 623.767 588.761C627.78 589.903 639.449 594.604 655.433 612.904Z" fill="#0C69B0"/>
<path d="M629.51 594.94C629.426 595.04 630.752 596.216 632.985 597.995C635.218 599.775 638.358 602.159 641.9 604.694C645.443 607.23 648.734 609.412 651.168 610.89C653.619 612.367 655.198 613.173 655.265 613.056C655.332 612.938 653.888 611.931 651.554 610.302C648.935 608.455 645.863 606.273 642.471 603.888C639.08 601.471 636.007 599.288 633.405 597.441C631.071 595.813 629.594 594.839 629.51 594.94Z" fill="#263238"/>
<path d="M685.956 660.369L678.552 708.891L649.019 708.84L639.063 660.369H685.956Z" fill="#455A64"/>
<path d="M658.992 675.949C659.748 674.808 660.268 673.414 660.369 671.886C660.486 670.392 659.899 668.596 658.371 667.706C656.843 666.816 654.879 667.135 653.418 668.109C651.907 669.099 651.017 670.812 650.581 672.558C650.161 674.338 650.11 676.168 650.211 678.031C650.329 679.895 650.681 681.809 651.403 683.639C652.125 685.469 653.267 687.198 654.828 688.525C656.373 689.851 658.371 690.791 660.52 690.892C662.669 690.993 664.717 690.254 666.43 689.18C668.159 688.088 669.62 686.728 670.846 685.184C672.054 683.656 672.961 681.809 673.079 679.845C673.179 677.914 672.491 675.916 670.98 674.707C669.452 673.465 667.269 673.549 665.742 674.388C664.163 675.177 662.988 676.688 662.719 678.35C662.149 681.675 664.096 684.68 666.464 686.04C668.881 687.417 671.517 687.467 673.599 687.064C675.715 686.644 677.394 685.822 678.686 685.083C679.979 684.327 680.903 683.639 681.524 683.152C682.145 682.665 682.447 682.397 682.43 682.38C682.414 682.363 682.078 682.581 681.423 683.018C680.768 683.454 679.811 684.092 678.518 684.798C677.226 685.486 675.563 686.258 673.515 686.611C671.5 686.947 668.982 686.846 666.749 685.536C664.583 684.277 662.837 681.423 663.374 678.485C663.626 677.041 664.65 675.731 666.06 675.043C667.437 674.321 669.25 674.27 670.51 675.311C671.769 676.319 672.39 678.098 672.306 679.828C672.205 681.557 671.366 683.27 670.224 684.714C669.066 686.158 667.639 687.484 666.01 688.508C664.382 689.515 662.501 690.187 660.554 690.103C658.623 690.019 656.793 689.163 655.349 687.92C653.905 686.678 652.814 685.083 652.142 683.354C651.437 681.624 651.101 679.794 650.983 677.998C650.866 676.201 650.916 674.405 651.302 672.743C651.689 671.097 652.495 669.553 653.804 668.696C655.08 667.823 656.793 667.571 658.018 668.277C659.278 668.982 659.815 670.476 659.731 671.836C659.664 673.213 659.194 674.539 658.505 675.614C657.044 677.763 654.946 679.072 652.998 679.744C651.034 680.432 649.204 680.516 647.743 680.365C644.805 680.029 643.411 678.955 643.378 679.072C643.378 679.072 643.462 679.139 643.63 679.257C643.798 679.358 644.049 679.526 644.402 679.693C645.107 680.046 646.215 680.466 647.709 680.684C649.204 680.886 651.084 680.852 653.149 680.18C655.181 679.526 657.397 678.199 658.992 675.933" fill="#263238"/>
<path d="M454.477 458.305L457.516 452.578H458.945L455.141 459.57V464H453.813V459.633L450 452.578H451.453L454.477 458.305Z" fill="white"/>
<path d="M464.344 455.281C465.412 455.281 466.263 455.648 466.899 456.383C467.534 457.117 467.852 458.221 467.852 459.695C467.852 460.669 467.706 461.487 467.414 462.148C467.123 462.81 466.711 463.31 466.18 463.648C465.654 463.987 465.031 464.156 464.313 464.156C463.86 464.156 463.461 464.096 463.117 463.977C462.774 463.857 462.479 463.695 462.235 463.492C461.99 463.289 461.787 463.068 461.625 462.828H461.531C461.547 463.031 461.565 463.276 461.586 463.562C461.612 463.849 461.625 464.099 461.625 464.312V467.828H460.32V455.438H461.391L461.563 456.703H461.625C461.792 456.443 461.995 456.206 462.235 455.992C462.474 455.773 462.766 455.602 463.11 455.477C463.458 455.346 463.87 455.281 464.344 455.281ZM464.117 456.375C463.524 456.375 463.044 456.49 462.68 456.719C462.32 456.948 462.057 457.292 461.891 457.75C461.724 458.203 461.636 458.773 461.625 459.461V459.711C461.625 460.435 461.703 461.047 461.86 461.547C462.021 462.047 462.284 462.427 462.649 462.688C463.018 462.948 463.513 463.078 464.133 463.078C464.664 463.078 465.107 462.935 465.461 462.648C465.815 462.362 466.078 461.964 466.25 461.453C466.427 460.938 466.516 460.346 466.516 459.68C466.516 458.669 466.318 457.867 465.922 457.273C465.531 456.674 464.93 456.375 464.117 456.375Z" fill="white"/>
<path d="M475.313 455.438V456.539H471.422V464H470.117V455.438H475.313Z" fill="white"/>
<path d="M478.422 464.156C477.938 464.156 477.516 464.117 477.156 464.039C476.802 463.961 476.472 463.849 476.164 463.703V462.57C476.487 462.701 476.833 462.812 477.203 462.906C477.573 463 477.987 463.047 478.445 463.047C479.029 463.047 479.529 462.94 479.945 462.727C480.367 462.513 480.695 462.19 480.93 461.758C481.169 461.32 481.307 460.776 481.344 460.125H477V459.055H481.328C481.261 458.154 481.008 457.487 480.57 457.055C480.133 456.617 479.487 456.398 478.633 456.398C478.326 456.398 477.987 456.443 477.617 456.531C477.253 456.615 476.925 456.711 476.633 456.82L476.274 455.758C476.576 455.622 476.935 455.51 477.352 455.422C477.774 455.328 478.198 455.281 478.625 455.281C479.432 455.281 480.141 455.432 480.75 455.734C481.36 456.036 481.833 456.513 482.172 457.164C482.516 457.81 482.688 458.656 482.688 459.703C482.688 460.698 482.508 461.526 482.149 462.188C481.789 462.849 481.289 463.344 480.649 463.672C480.013 463.995 479.271 464.156 478.422 464.156Z" fill="white"/>
<path d="M491.352 464H490.031V456.523H487.43C487.326 457.872 487.193 459.029 487.031 459.992C486.875 460.951 486.677 461.734 486.438 462.344C486.203 462.948 485.917 463.393 485.578 463.68C485.245 463.961 484.847 464.102 484.383 464.102C484.242 464.102 484.11 464.094 483.985 464.078C483.86 464.062 483.753 464.036 483.664 464V463.016C483.732 463.036 483.802 463.052 483.875 463.062C483.953 463.073 484.034 463.078 484.117 463.078C484.352 463.078 484.565 462.982 484.758 462.789C484.956 462.591 485.133 462.294 485.289 461.898C485.451 461.503 485.594 461.003 485.719 460.398C485.844 459.789 485.953 459.073 486.047 458.25C486.146 457.422 486.232 456.484 486.305 455.438H491.352V464Z" fill="white"/>
<path d="M504.117 455.438L500.555 459.602L504.422 464H502.938L499.188 459.656V464H497.977V459.656L494.235 464H492.75L496.617 459.602L493.047 455.438H494.477L497.977 459.594V455.438H499.188V459.594L502.703 455.438H504.117Z" fill="white"/>
<path d="M512.274 464H510.953V456.523H508.352C508.248 457.872 508.115 459.029 507.953 459.992C507.797 460.951 507.599 461.734 507.36 462.344C507.125 462.948 506.839 463.393 506.5 463.68C506.167 463.961 505.768 464.102 505.305 464.102C505.164 464.102 505.031 464.094 504.906 464.078C504.781 464.062 504.675 464.036 504.586 464V463.016C504.654 463.036 504.724 463.052 504.797 463.062C504.875 463.073 504.956 463.078 505.039 463.078C505.274 463.078 505.487 462.982 505.68 462.789C505.878 462.591 506.055 462.294 506.211 461.898C506.373 461.503 506.516 461.003 506.641 460.398C506.766 459.789 506.875 459.073 506.969 458.25C507.068 457.422 507.154 456.484 507.227 455.438H512.274V464Z" fill="white"/>
<path d="M518.281 467.844H516.984V464.023L513.641 455.438H514.992L516.867 460.328C517.018 460.745 517.164 461.177 517.305 461.625C517.451 462.073 517.55 462.427 517.602 462.688H517.68C517.748 462.427 517.846 462.076 517.977 461.633C518.112 461.19 518.261 460.755 518.422 460.328L520.274 455.438H521.633L518.281 464.023V467.844Z" fill="white"/>
<path d="M526.281 467.844H524.984V464.023L521.641 455.438H522.992L524.867 460.328C525.018 460.745 525.164 461.177 525.305 461.625C525.451 462.073 525.55 462.427 525.602 462.688H525.68C525.748 462.427 525.846 462.076 525.977 461.633C526.112 461.19 526.261 460.755 526.422 460.328L528.274 455.438H529.633L526.281 464.023V467.844Z" fill="white"/>
<path d="M537.43 464H536.109V456.523H533.508C533.404 457.872 533.271 459.029 533.109 459.992C532.953 460.951 532.755 461.734 532.516 462.344C532.281 462.948 531.995 463.393 531.656 463.68C531.323 463.961 530.925 464.102 530.461 464.102C530.32 464.102 530.188 464.094 530.063 464.078C529.938 464.062 529.831 464.036 529.742 464V463.016C529.81 463.036 529.88 463.052 529.953 463.062C530.031 463.073 530.112 463.078 530.195 463.078C530.43 463.078 530.643 462.982 530.836 462.789C531.034 462.591 531.211 462.294 531.367 461.898C531.529 461.503 531.672 461.003 531.797 460.398C531.922 459.789 532.031 459.073 532.125 458.25C532.224 457.422 532.31 456.484 532.383 455.438H537.43V464Z" fill="white"/>
<path d="M541.563 464.156C541.078 464.156 540.656 464.117 540.297 464.039C539.943 463.961 539.612 463.849 539.305 463.703V462.57C539.628 462.701 539.974 462.812 540.344 462.906C540.714 463 541.128 463.047 541.586 463.047C542.169 463.047 542.669 462.94 543.086 462.727C543.508 462.513 543.836 462.19 544.07 461.758C544.31 461.32 544.448 460.776 544.484 460.125H540.141V459.055H544.469C544.401 458.154 544.149 457.487 543.711 457.055C543.274 456.617 542.628 456.398 541.774 456.398C541.466 456.398 541.128 456.443 540.758 456.531C540.393 456.615 540.065 456.711 539.774 456.82L539.414 455.758C539.716 455.622 540.076 455.51 540.492 455.422C540.914 455.328 541.339 455.281 541.766 455.281C542.573 455.281 543.281 455.432 543.891 455.734C544.5 456.036 544.974 456.513 545.313 457.164C545.656 457.81 545.828 458.656 545.828 459.703C545.828 460.698 545.649 461.526 545.289 462.188C544.93 462.849 544.43 463.344 543.789 463.672C543.154 463.995 542.412 464.156 541.563 464.156Z" fill="white"/>
<path d="M550.109 459.617L547.149 455.438H548.633L550.891 458.734L553.141 455.438H554.609L551.649 459.617L554.774 464H553.289L550.891 460.508L548.477 464H547.008L550.109 459.617Z" fill="white"/>
<path d="M441.922 404H435.563V392.578H441.922V393.75H436.891V397.445H441.633V398.602H436.891V402.828H441.922V404Z" fill="black"/>
<path d="M443.531 400.281V399.125H447.406V400.281H443.531Z" fill="black"/>
<path d="M454.633 404L450.797 393.891H450.735C450.755 394.104 450.774 394.365 450.789 394.672C450.805 394.979 450.818 395.315 450.828 395.68C450.839 396.039 450.844 396.406 450.844 396.781V404H449.61V392.578H451.578L455.195 402.078H455.25L458.922 392.578H460.875V404H459.563V396.688C459.563 396.349 459.568 396.01 459.578 395.672C459.589 395.328 459.602 395.005 459.617 394.703C459.633 394.396 459.649 394.13 459.664 393.906H459.602L455.719 404H454.633Z" fill="black"/>
<path d="M467.008 395.297C468.029 395.297 468.787 395.526 469.281 395.984C469.776 396.443 470.024 397.174 470.024 398.18V404H469.078L468.828 402.734H468.766C468.526 403.047 468.276 403.31 468.016 403.523C467.755 403.732 467.453 403.891 467.11 404C466.771 404.104 466.354 404.156 465.86 404.156C465.339 404.156 464.875 404.065 464.469 403.883C464.068 403.701 463.75 403.424 463.516 403.055C463.287 402.685 463.172 402.216 463.172 401.648C463.172 400.794 463.511 400.138 464.188 399.68C464.865 399.221 465.896 398.971 467.281 398.93L468.758 398.867V398.344C468.758 397.604 468.599 397.086 468.281 396.789C467.964 396.492 467.516 396.344 466.938 396.344C466.49 396.344 466.063 396.409 465.656 396.539C465.25 396.669 464.865 396.823 464.5 397L464.102 396.016C464.487 395.818 464.93 395.648 465.43 395.508C465.93 395.367 466.456 395.297 467.008 395.297ZM468.742 399.781L467.438 399.836C466.37 399.878 465.617 400.052 465.18 400.359C464.742 400.667 464.524 401.102 464.524 401.664C464.524 402.154 464.672 402.516 464.969 402.75C465.266 402.984 465.659 403.102 466.149 403.102C466.909 403.102 467.531 402.891 468.016 402.469C468.5 402.047 468.742 401.414 468.742 400.57V399.781Z" fill="black"/>
<path d="M473.992 395.438V404H472.695V395.438H473.992ZM473.36 392.234C473.573 392.234 473.755 392.305 473.906 392.445C474.063 392.581 474.141 392.794 474.141 393.086C474.141 393.372 474.063 393.586 473.906 393.727C473.755 393.867 473.573 393.938 473.36 393.938C473.136 393.938 472.948 393.867 472.797 393.727C472.651 393.586 472.578 393.372 472.578 393.086C472.578 392.794 472.651 392.581 472.797 392.445C472.948 392.305 473.136 392.234 473.36 392.234Z" fill="black"/>
<path d="M478.047 404H476.742V391.844H478.047V404Z" fill="black"/>
<path d="M451.219 303H449.891V297.617H443.891V303H442.563V291.578H443.891V296.445H449.891V291.578H451.219V303Z" fill="black"/>
<path d="M452.813 294.438H454.203L456.094 299.406C456.203 299.698 456.305 299.979 456.399 300.25C456.492 300.516 456.576 300.771 456.649 301.016C456.722 301.26 456.779 301.497 456.82 301.727H456.875C456.948 301.466 457.052 301.125 457.188 300.703C457.323 300.276 457.469 299.841 457.625 299.398L459.414 294.438H460.813L457.086 304.258C456.888 304.784 456.656 305.242 456.391 305.633C456.13 306.023 455.813 306.323 455.438 306.531C455.063 306.745 454.61 306.852 454.078 306.852C453.833 306.852 453.617 306.836 453.43 306.805C453.242 306.779 453.081 306.747 452.945 306.711V305.672C453.06 305.698 453.198 305.721 453.36 305.742C453.526 305.763 453.698 305.773 453.875 305.773C454.198 305.773 454.477 305.711 454.711 305.586C454.951 305.466 455.156 305.289 455.328 305.055C455.5 304.82 455.649 304.542 455.774 304.219L456.242 303.016L452.813 294.438Z" fill="black"/>
<path d="M460.828 294.438H462.219L464.11 299.406C464.219 299.698 464.32 299.979 464.414 300.25C464.508 300.516 464.591 300.771 464.664 301.016C464.737 301.26 464.794 301.497 464.836 301.727H464.891C464.964 301.466 465.068 301.125 465.203 300.703C465.339 300.276 465.485 299.841 465.641 299.398L467.43 294.438H468.828L465.102 304.258C464.904 304.784 464.672 305.242 464.406 305.633C464.146 306.023 463.828 306.323 463.453 306.531C463.078 306.745 462.625 306.852 462.094 306.852C461.849 306.852 461.633 306.836 461.445 306.805C461.258 306.779 461.097 306.747 460.961 306.711V305.672C461.076 305.698 461.214 305.721 461.375 305.742C461.542 305.763 461.714 305.773 461.891 305.773C462.214 305.773 462.492 305.711 462.727 305.586C462.966 305.466 463.172 305.289 463.344 305.055C463.516 304.82 463.664 304.542 463.789 304.219L464.258 303.016L460.828 294.438Z" fill="black"/>
<path d="M478.531 305.961H477.266V303H470.195V294.438H471.5V301.898H476.039V294.438H477.336V301.914H478.531V305.961Z" fill="black"/>
<path d="M487.641 306.844H486.344V303.023L483 294.438H484.352L486.227 299.328C486.378 299.745 486.524 300.177 486.664 300.625C486.81 301.073 486.909 301.427 486.961 301.688H487.039C487.107 301.427 487.206 301.076 487.336 300.633C487.472 300.19 487.62 299.755 487.781 299.328L489.633 294.438H490.992L487.641 303.023V306.844Z" fill="black"/>
<path d="M497.563 294.438V295.539H493.672V303H492.367V294.438H497.563Z" fill="black"/>
<path d="M512.469 294.438V303H511.297V297.422C511.297 297.193 511.302 296.961 511.313 296.727C511.328 296.487 511.347 296.247 511.367 296.008H511.32L508.477 303H507.375L504.602 296.008H504.555C504.57 296.247 504.581 296.487 504.586 296.727C504.597 296.961 504.602 297.208 504.602 297.469V303H503.422V294.438H505.164L507.93 301.438L510.735 294.438H512.469Z" fill="black"/>
<path d="M518.367 294.297C519.388 294.297 520.146 294.526 520.641 294.984C521.136 295.443 521.383 296.174 521.383 297.18V303H520.438L520.188 301.734H520.125C519.886 302.047 519.636 302.31 519.375 302.523C519.115 302.732 518.813 302.891 518.469 303C518.13 303.104 517.714 303.156 517.219 303.156C516.698 303.156 516.234 303.065 515.828 302.883C515.427 302.701 515.109 302.424 514.875 302.055C514.646 301.685 514.531 301.216 514.531 300.648C514.531 299.794 514.87 299.138 515.547 298.68C516.224 298.221 517.255 297.971 518.641 297.93L520.117 297.867V297.344C520.117 296.604 519.958 296.086 519.641 295.789C519.323 295.492 518.875 295.344 518.297 295.344C517.849 295.344 517.422 295.409 517.016 295.539C516.609 295.669 516.224 295.823 515.859 296L515.461 295.016C515.846 294.818 516.289 294.648 516.789 294.508C517.289 294.367 517.815 294.297 518.367 294.297ZM520.102 298.781L518.797 298.836C517.729 298.878 516.977 299.052 516.539 299.359C516.102 299.667 515.883 300.102 515.883 300.664C515.883 301.154 516.031 301.516 516.328 301.75C516.625 301.984 517.018 302.102 517.508 302.102C518.268 302.102 518.891 301.891 519.375 301.469C519.859 301.047 520.102 300.414 520.102 299.57V298.781Z" fill="black"/>
<path d="M528.078 294.281C529.146 294.281 529.998 294.648 530.633 295.383C531.268 296.117 531.586 297.221 531.586 298.695C531.586 299.669 531.44 300.487 531.149 301.148C530.857 301.81 530.445 302.31 529.914 302.648C529.388 302.987 528.766 303.156 528.047 303.156C527.594 303.156 527.195 303.096 526.852 302.977C526.508 302.857 526.214 302.695 525.969 302.492C525.724 302.289 525.521 302.068 525.359 301.828H525.266C525.281 302.031 525.3 302.276 525.32 302.562C525.346 302.849 525.359 303.099 525.359 303.312V306.828H524.055V294.438H525.125L525.297 295.703H525.359C525.526 295.443 525.729 295.206 525.969 294.992C526.208 294.773 526.5 294.602 526.844 294.477C527.193 294.346 527.604 294.281 528.078 294.281ZM527.852 295.375C527.258 295.375 526.779 295.49 526.414 295.719C526.055 295.948 525.792 296.292 525.625 296.75C525.458 297.203 525.37 297.773 525.359 298.461V298.711C525.359 299.435 525.438 300.047 525.594 300.547C525.755 301.047 526.018 301.427 526.383 301.688C526.753 301.948 527.248 302.078 527.867 302.078C528.399 302.078 528.841 301.935 529.195 301.648C529.55 301.362 529.813 300.964 529.984 300.453C530.162 299.938 530.25 299.346 530.25 298.68C530.25 297.669 530.052 296.867 529.656 296.273C529.266 295.674 528.664 295.375 527.852 295.375Z" fill="black"/>
<path d="M539.688 295.539H536.867V303H535.586V295.539H532.805V294.438H539.688V295.539Z" fill="black"/>
<path d="M544.813 303.156C544.042 303.156 543.362 302.997 542.774 302.68C542.185 302.362 541.727 301.878 541.399 301.227C541.07 300.576 540.906 299.755 540.906 298.766C540.906 297.729 541.078 296.883 541.422 296.227C541.771 295.565 542.25 295.076 542.859 294.758C543.469 294.44 544.162 294.281 544.938 294.281C545.365 294.281 545.776 294.326 546.172 294.414C546.573 294.497 546.901 294.604 547.156 294.734L546.766 295.82C546.505 295.716 546.203 295.622 545.859 295.539C545.521 295.456 545.203 295.414 544.906 295.414C544.313 295.414 543.818 295.542 543.422 295.797C543.031 296.052 542.737 296.427 542.539 296.922C542.346 297.417 542.25 298.026 542.25 298.75C542.25 299.443 542.344 300.034 542.531 300.523C542.724 301.013 543.008 301.388 543.383 301.648C543.763 301.904 544.237 302.031 544.805 302.031C545.258 302.031 545.667 301.984 546.031 301.891C546.396 301.792 546.727 301.677 547.024 301.547V302.703C546.737 302.849 546.417 302.961 546.063 303.039C545.714 303.117 545.297 303.156 544.813 303.156Z" fill="black"/>
<path d="M552.258 294.297C553.279 294.297 554.037 294.526 554.531 294.984C555.026 295.443 555.274 296.174 555.274 297.18V303H554.328L554.078 301.734H554.016C553.776 302.047 553.526 302.31 553.266 302.523C553.005 302.732 552.703 302.891 552.359 303C552.021 303.104 551.604 303.156 551.109 303.156C550.589 303.156 550.125 303.065 549.719 302.883C549.318 302.701 549 302.424 548.766 302.055C548.537 301.685 548.422 301.216 548.422 300.648C548.422 299.794 548.761 299.138 549.438 298.68C550.115 298.221 551.146 297.971 552.531 297.93L554.008 297.867V297.344C554.008 296.604 553.849 296.086 553.531 295.789C553.214 295.492 552.766 295.344 552.188 295.344C551.74 295.344 551.313 295.409 550.906 295.539C550.5 295.669 550.115 295.823 549.75 296L549.352 295.016C549.737 294.818 550.18 294.648 550.68 294.508C551.18 294.367 551.706 294.297 552.258 294.297ZM553.992 298.781L552.688 298.836C551.62 298.878 550.867 299.052 550.43 299.359C549.992 299.667 549.774 300.102 549.774 300.664C549.774 301.154 549.922 301.516 550.219 301.75C550.516 301.984 550.909 302.102 551.399 302.102C552.159 302.102 552.781 301.891 553.266 301.469C553.75 301.047 553.992 300.414 553.992 299.57V298.781Z" fill="black"/>
<path d="M559.25 294.438V298.031H564.024V294.438H565.32V303H564.024V299.133H559.25V303H557.945V294.438H559.25Z" fill="black"/>
<path d="M568.953 299.828V299.422C568.953 299.005 568.992 298.648 569.07 298.352C569.149 298.049 569.284 297.768 569.477 297.508C569.675 297.247 569.948 296.971 570.297 296.68C570.703 296.341 571.024 296.055 571.258 295.82C571.498 295.581 571.669 295.341 571.774 295.102C571.878 294.862 571.93 294.573 571.93 294.234C571.93 293.693 571.755 293.279 571.406 292.992C571.057 292.701 570.565 292.555 569.93 292.555C569.414 292.555 568.956 292.62 568.555 292.75C568.154 292.88 567.768 293.036 567.399 293.219L566.945 292.172C567.373 291.948 567.836 291.766 568.336 291.625C568.836 291.484 569.393 291.414 570.008 291.414C571.013 291.414 571.792 291.664 572.344 292.164C572.896 292.659 573.172 293.341 573.172 294.211C573.172 294.695 573.094 295.109 572.938 295.453C572.781 295.792 572.56 296.104 572.274 296.391C571.987 296.672 571.649 296.971 571.258 297.289C570.914 297.581 570.651 297.839 570.469 298.062C570.287 298.281 570.162 298.508 570.094 298.742C570.026 298.971 569.992 299.247 569.992 299.57V299.828H568.953ZM568.609 302.188C568.609 301.823 568.695 301.565 568.867 301.414C569.039 301.258 569.261 301.18 569.531 301.18C569.787 301.18 570.003 301.258 570.18 301.414C570.362 301.565 570.453 301.823 570.453 302.188C570.453 302.547 570.362 302.81 570.18 302.977C570.003 303.138 569.787 303.219 569.531 303.219C569.261 303.219 569.039 303.138 568.867 302.977C568.695 302.81 568.609 302.547 568.609 302.188Z" fill="black"/>
</svg>
