<svg width="24" height="24" viewBox="0 0 24 24" fill="none" xmlns="http://www.w3.org/2000/svg">
<g id="Table">
<path id="Vector" d="M23.9745 2.922C23.9085 2.1495 23.2845 1.5 22.5 1.5H1.5C0.7155 1.5 0.0915 2.1495 0.0255 2.922H0V22.5C0 22.8978 0.158035 23.2794 0.43934 23.5607C0.720644 23.842 1.10218 24 1.5 24H22.5C22.8978 24 23.2794 23.842 23.5607 23.5607C23.842 23.2794 24 22.8978 24 22.5V2.922H23.9745ZM9 10.5V6H15V10.5H9ZM15 12V16.6245H9V12H15ZM7.5 6V10.5H1.5V6H7.5ZM1.5 12H7.5V16.6245H1.5V12ZM1.5 22.5V18H7.5V22.5H1.5ZM9 22.5V18H15V22.5H9ZM22.5 22.5H16.5V18H22.5V22.5ZM22.5 16.6245H16.5V12H22.5V16.6245ZM22.5 10.5H16.5V6H22.5V10.5Z" fill="#7F7F81"/>
</g>
</svg>
